<svg width="77" height="100" viewBox="0 0 77 100" fill="none" xmlns="http://www.w3.org/2000/svg">
<path d="M63.3303 44.2058H59.0658V15.7605H63.3303C64.4416 15.7605 65.3424 16.6613 65.3424 17.7726V42.1937C65.3424 43.305 64.4416 44.2058 63.3303 44.2058Z" fill="#B5ADB6"/>
<path d="M2.01211 27.725H6.27656V15.7605H2.01211C0.900782 15.7605 0 16.6613 0 17.7726V25.7128C0 26.824 0.900977 27.725 2.01211 27.725Z" fill="#B5ADB6"/>
<path d="M2.01211 44.2058H6.27656V32.2416H2.01211C0.900782 32.2416 0 33.1424 0 34.2537V42.1939C0 43.3051 0.900977 44.2058 2.01211 44.2058Z" fill="#B5ADB6"/>
<path d="M54.6473 100H10.6965C7.36274 100 4.6604 97.2975 4.6604 93.9639V6.03613C4.66021 2.70254 7.36274 0 10.6965 0H54.6473C57.9811 0 60.6834 2.70254 60.6834 6.03613V93.9637C60.6834 97.2975 57.9811 100 54.6473 100Z" fill="#7A6E79"/>
<path d="M60.6832 6.03613V93.9637C60.6832 97.2977 57.9811 99.9998 54.6471 99.9998H47.792C51.126 99.9998 53.8281 97.2977 53.8281 93.9637V6.03613C53.8281 2.70215 51.126 0 47.792 0H54.6471C57.9811 0 60.6832 2.70215 60.6832 6.03613Z" fill="#685E67"/>
<path d="M55.6531 6.03608V93.9636C55.6531 94.5189 55.2023 94.9697 54.6471 94.9697H10.6975C10.1422 94.9697 9.69141 94.5189 9.69141 93.9636V6.03608C9.69141 5.48081 10.1422 5.03003 10.6975 5.03003H21.7799C22.1924 5.03003 22.5646 5.28159 22.7154 5.66577L23.8664 8.58335C24.1703 9.3519 24.9127 9.85698 25.7377 9.85698H39.6049C40.4299 9.85698 41.1723 9.3519 41.4762 8.58335L42.6272 5.66577C42.7781 5.2814 43.1504 5.03003 43.5627 5.03003H54.6473C55.2023 5.03022 55.6531 5.48081 55.6531 6.03608Z" fill="#107295"/>
<path d="M55.6531 26.9537V53.4145H37.3172C36.2064 53.4145 35.3051 52.5131 35.3051 51.4024V28.9658C35.3051 27.8551 36.2064 26.9537 37.3172 26.9537H55.6531Z" fill="#0D5F7F"/>
<path d="M55.6532 6.03608V93.9636C55.6532 94.5189 55.2024 94.9697 54.6471 94.9697H48.8987C49.454 94.9697 49.9047 94.5189 49.9047 93.9636V6.03608C49.9047 5.48081 49.454 5.03003 48.8987 5.03003H54.6471C55.2024 5.03022 55.6532 5.48081 55.6532 6.03608Z" fill="#0D5F7F"/>
<path d="M32.2336 6.53921H28.1987C27.3651 6.53921 26.6897 5.86362 26.6897 5.03022C26.6897 4.19683 27.3653 3.52124 28.1987 3.52124H32.2336C33.0672 3.52124 33.7426 4.19683 33.7426 5.03022C33.7426 5.86362 33.0672 6.53921 32.2336 6.53921Z" fill="#433F43"/>
<path d="M37.1436 6.54961C36.31 6.54961 35.6346 5.87402 35.6346 5.04063V5.01973C35.6346 4.18633 36.3102 3.51074 37.1436 3.51074C37.9772 3.51074 38.6526 4.18633 38.6526 5.01973V5.04063C38.6528 5.87402 37.9772 6.54961 37.1436 6.54961Z" fill="#433F43"/>
<path d="M40.4305 89.9422H24.9119C24.0783 89.9422 23.403 89.2666 23.403 88.4332C23.403 87.5998 24.0785 86.9242 24.9119 86.9242H40.4305C41.2641 86.9242 41.9395 87.5998 41.9395 88.4332C41.9397 89.2666 41.2641 89.9422 40.4305 89.9422Z" fill="#64E0C4"/>
<path d="M74.5984 48.6055H37.3172C36.2058 48.6055 35.3051 47.7047 35.3051 46.5934V24.1572C35.3051 23.0459 36.2058 22.1451 37.3172 22.1451H74.5984C75.7097 22.1451 76.6105 23.0459 76.6105 24.1572V46.5934C76.6103 47.7045 75.7095 48.6055 74.5984 48.6055Z" fill="#64E0C4"/>
<path d="M76.6109 24.157V46.5935C76.6109 47.7043 75.7095 48.6056 74.5988 48.6056H69.2507C70.3615 48.6056 71.2628 47.7043 71.2628 46.5935V24.157C71.2628 23.0463 70.3615 22.1449 69.2507 22.1449H74.5988C75.7093 22.1449 76.6109 23.0463 76.6109 24.157Z" fill="#27D1B3"/>
<path d="M48.5531 41.8872C48.1794 41.8872 47.805 41.7493 47.513 41.4714L42.2556 36.4685C41.9562 36.1837 41.7869 35.7886 41.7869 35.3753C41.7869 34.962 41.9562 34.5669 42.2556 34.2821L47.513 29.2794C48.1167 28.705 49.0718 28.7284 49.6466 29.3323C50.2212 29.936 50.1974 30.8911 49.5935 31.4657L45.4851 35.3753L49.5935 39.2851C50.1974 39.8597 50.2208 40.8147 49.6466 41.4187C49.3498 41.7302 48.9517 41.8872 48.5531 41.8872Z" fill="#0D5F7F"/>
<path d="M63.3625 41.887C62.9638 41.887 62.5658 41.73 62.2691 41.4183C61.6945 40.8146 61.7181 39.8593 62.322 39.2847L66.4302 35.3749L62.322 31.4654C61.7181 30.8907 61.6947 29.9357 62.2691 29.3318C62.8437 28.7281 63.799 28.7044 64.4025 29.2788L69.6597 34.2816C69.9591 34.5663 70.1285 34.9615 70.1285 35.3747C70.1285 35.788 69.9591 36.1831 69.6597 36.4679L64.4025 41.4708C64.1105 41.7491 63.7361 41.887 63.3625 41.887Z" fill="#0D5F7F"/>
<path d="M53.9584 41.8875C53.7719 41.8875 53.5824 41.8527 53.3988 41.7795C52.625 41.4703 52.2482 40.5922 52.5574 39.8181L56.5553 29.8125C56.8648 29.0385 57.743 28.6621 58.5166 28.9711C59.2904 29.2804 59.6672 30.1584 59.358 30.9324L55.3602 40.9381C55.1242 41.5283 54.5572 41.8875 53.9584 41.8875Z" fill="#0D5F7F"/>
<path d="M17.3153 57.2364C16.4817 57.2364 15.8063 56.5608 15.8063 55.7274V55.7065C15.8063 54.8731 16.4819 54.1975 17.3153 54.1975C18.1487 54.1975 18.8242 54.8731 18.8242 55.7065V55.7274C18.8244 56.5608 18.1489 57.2364 17.3153 57.2364Z" fill="#64B9FC"/>
<path d="M29.9412 57.2364H22.8951C22.0615 57.2364 21.3861 56.5608 21.3861 55.7274C21.3861 54.894 22.0617 54.2184 22.8951 54.2184H29.9412C30.7748 54.2184 31.4502 54.894 31.4502 55.7274C31.4502 56.5608 30.7748 57.2364 29.9412 57.2364Z" fill="#64B9FC"/>
<path d="M17.3153 63.6534C16.4817 63.6534 15.8063 62.9778 15.8063 62.1444V62.1235C15.8063 61.2901 16.4819 60.6145 17.3153 60.6145C18.1487 60.6145 18.8242 61.2901 18.8242 62.1235V62.1444C18.8244 62.9778 18.1489 63.6534 17.3153 63.6534Z" fill="#27D1B3"/>
<path d="M43.5058 63.6533H22.8951C22.0615 63.6533 21.3861 62.9778 21.3861 62.1444C21.3861 61.311 22.0617 60.6354 22.8951 60.6354H43.5058C44.3394 60.6354 45.0148 61.311 45.0148 62.1444C45.0148 62.9778 44.3392 63.6533 43.5058 63.6533Z" fill="#27D1B3"/>
<path d="M17.3153 70.0706C16.4817 70.0706 15.8063 69.395 15.8063 68.5616V68.5407C15.8063 67.7073 16.4819 67.0317 17.3153 67.0317C18.1487 67.0317 18.8242 67.7073 18.8242 68.5407V68.5616C18.8244 69.3948 18.1489 70.0706 17.3153 70.0706Z" fill="#A3E440"/>
<path d="M48.0273 70.0706H22.8951C22.0615 70.0706 21.3861 69.395 21.3861 68.5616C21.3861 67.7282 22.0617 67.0526 22.8951 67.0526H48.0273C48.8609 67.0526 49.5363 67.7282 49.5363 68.5616C49.5363 69.3948 48.8607 70.0706 48.0273 70.0706Z" fill="#A3E440"/>
<path d="M17.3153 76.4876C16.4817 76.4876 15.8063 75.812 15.8063 74.9786V74.9577C15.8063 74.1243 16.4819 73.4487 17.3153 73.4487C18.1487 73.4487 18.8242 74.1243 18.8242 74.9577V74.9786C18.8244 75.8118 18.1489 76.4876 17.3153 76.4876Z" fill="#A3E440"/>
<path d="M48.0273 76.4876H22.8951C22.0615 76.4876 21.3861 75.812 21.3861 74.9786C21.3861 74.1452 22.0617 73.4696 22.8951 73.4696H48.0273C48.8609 73.4696 49.5363 74.1452 49.5363 74.9786C49.5363 75.8118 48.8607 76.4876 48.0273 76.4876Z" fill="#A3E440"/>
<path d="M29.2405 46.7953H17.3895C16.5559 46.7953 15.8805 46.1197 15.8805 45.2863C15.8805 44.4529 16.5561 43.7773 17.3895 43.7773H29.2403C30.0739 43.7773 30.7492 44.4529 30.7492 45.2863C30.7492 46.1197 30.0739 46.7953 29.2405 46.7953Z" fill="#FCC16D"/>
<path d="M29.2405 40.3781H17.3895C16.5559 40.3781 15.8805 39.7025 15.8805 38.8691C15.8805 38.0357 16.5561 37.3601 17.3895 37.3601H29.2403C30.0739 37.3601 30.7492 38.0357 30.7492 38.8691C30.7492 39.7025 30.0739 40.3781 29.2405 40.3781Z" fill="#FCC16D"/>
<path d="M29.2405 33.9611H17.3895C16.5559 33.9611 15.8805 33.2855 15.8805 32.4521C15.8805 31.6187 16.5561 30.9431 17.3895 30.9431H29.2403C30.0739 30.9431 30.7492 31.6187 30.7492 32.4521C30.7494 33.2855 30.0739 33.9611 29.2405 33.9611Z" fill="#FC5A95"/>
<path d="M29.2405 27.5441H17.3895C16.5559 27.5441 15.8805 26.8685 15.8805 26.0351C15.8805 25.2017 16.5561 24.5261 17.3895 24.5261H29.2403C30.0739 24.5261 30.7492 25.2017 30.7492 26.0351C30.7494 26.8685 30.0739 27.5441 29.2405 27.5441Z" fill="#FC5A95"/>
</svg>
