<svg width="110" height="100" viewBox="0 0 110 100" fill="none" xmlns="http://www.w3.org/2000/svg">
<g clip-path="url(#clip0_19_475)">
<path d="M102.898 89.3244H6.20081V31.7706C6.20081 27.6367 9.56752 24.27 13.7013 24.27H95.4188C99.5526 24.27 102.919 27.6367 102.919 31.7706V89.3244H102.898Z" fill="#525293"/>
<path d="M95.4188 24.27H54.3577V89.3244H102.898V31.7706C102.898 27.6154 99.5526 24.27 95.4188 24.27Z" fill="#3D3973"/>
<path d="M11.4213 81.2699V32.3247C11.4213 30.7266 12.7211 29.4268 14.3192 29.4268H94.7795C96.3776 29.4268 97.6774 30.7266 97.6774 32.3247V81.2699C97.6774 82.8681 96.3776 84.1679 94.7795 84.1679H14.3192C12.7211 84.1466 11.4213 82.8681 11.4213 81.2699Z" fill="#E6EAFF"/>
<path d="M94.7794 29.4268H54.3575V84.1466H94.7794C96.3776 84.1466 97.6774 82.8467 97.6774 81.2486V32.3247C97.6774 30.7266 96.3776 29.4268 94.7794 29.4268Z" fill="#CAD4FF"/>
<path d="M64.3086 91.6045C63.3284 93.0321 61.709 93.8844 59.983 93.8844H49.1157C47.3898 93.8844 45.7703 93.0321 44.7901 91.6045C43.81 90.1768 42.1905 89.3245 40.4646 89.3245H4.09123C1.1933 89.3245 -0.767068 92.265 0.319657 94.9286C1.57685 97.997 4.53871 99.9999 7.86281 99.9999H101.279C104.581 99.9999 107.564 97.997 108.822 94.9286C109.908 92.2437 107.948 89.3245 105.05 89.3245H68.6342C66.8869 89.3245 65.2674 90.1768 64.3086 91.6045Z" fill="#3D3973"/>
<path d="M105.029 89.3245H68.6341C66.9082 89.3245 65.2887 90.1768 64.3085 91.6045C63.3283 93.0321 61.7089 93.9058 59.9829 93.9058H54.3575V100.021H101.257C104.581 100.021 107.543 98.0183 108.8 94.9499C109.013 94.4385 109.099 93.9271 109.099 93.4157C109.099 91.2422 107.351 89.3245 105.029 89.3245Z" fill="#2B2B60"/>
<path d="M40.4646 89.303C41.3382 89.303 42.1693 89.5161 42.9151 89.9209C43.6608 90.3045 44.3001 90.8798 44.7902 91.6043C45.7704 93.0319 47.3898 93.8843 49.1158 93.8843H59.983C61.709 93.8843 63.3284 93.0319 64.3086 91.6043C65.2888 90.1766 66.9082 89.3243 68.6342 89.3243H40.4646V89.303Z" fill="#FF5D5C"/>
<path d="M54.5494 89.303V93.8843H59.9831C61.709 93.8843 63.3285 93.0319 64.3087 91.583C65.2888 90.1553 66.9083 89.303 68.6342 89.303H54.5494Z" fill="#E00F5B"/>
<path d="M52.653 37.8434C40.3368 34.7537 24.2063 41.5085 20.1365 43.3836L13.1899 30.7691C16.9402 28.3186 31.2807 18.3037 35.2654 6.24316L52.653 37.8434Z" fill="#FFDC4A"/>
<path d="M52.8661 23.0129L47.9012 13.9995C50.1386 13.552 52.5252 14.5748 53.6758 16.7056C54.8478 18.8151 54.4429 21.3508 52.8661 23.0129Z" fill="#FFDC4A"/>
<path d="M22.0968 60.6858L19.625 62.0496C19.1988 62.284 18.6661 62.1348 18.4317 61.7086L12.4441 50.8414L18.6022 47.4534C18.6661 49.6055 19.3267 53.6328 22.4377 59.4926C22.6721 59.9187 22.5229 60.4514 22.0968 60.6858Z" fill="#FFDC4A"/>
<path d="M7.67106 48.7959C5.02883 49.499 2.1522 48.3484 0.76716 45.834C-0.0425565 44.3637 -0.170407 42.7017 0.25576 41.1888C0.554077 40.1447 1.15071 39.1858 1.96043 38.4187L7.67106 48.7959Z" fill="#FFDC4A"/>
<path d="M58.1292 40.1874C56.3606 41.1676 54.1232 40.5284 53.1431 38.7385L34.8179 5.43356C33.8377 3.66497 34.477 1.42759 36.2669 0.447407C38.0354 -0.532776 40.2728 0.106474 41.253 1.89637L59.5782 35.2013C60.5584 36.9699 59.9191 39.2073 58.1292 40.1874Z" fill="#FF5D5C"/>
<path d="M20.3921 46.4522L10.7607 51.7579C10.1428 52.0989 9.3757 51.8645 9.03477 51.2678L0.596669 35.9471C0.255736 35.3292 0.490128 34.5621 1.08676 34.2212L10.7181 28.9154C11.3361 28.5745 12.1032 28.8089 12.4441 29.4055L20.8822 44.7475C21.2231 45.3441 21.0101 46.1325 20.3921 46.4522Z" fill="#FF5D5C"/>
<path d="M34.136 79.2456H22.7999V57.7668C22.7999 56.8079 23.5883 56.0195 24.5472 56.0195H32.3887C33.3476 56.0195 34.136 56.8079 34.136 57.7668V79.2456Z" fill="#FF5D5C"/>
<path d="M51.5235 79.2456H40.1875V50.6711C40.1875 49.7122 40.9759 48.9238 41.9348 48.9238H49.7762C50.7351 48.9238 51.5235 49.7122 51.5235 50.6711V79.2456Z" fill="#26BAFF"/>
<path d="M68.9112 79.2457H57.5752V42.6806C57.5752 41.7218 58.3636 40.9333 59.3225 40.9333H67.1639C68.1228 40.9333 68.9112 41.7218 68.9112 42.6806V79.2457Z" fill="#FFC738"/>
<path d="M86.2988 79.2456H74.9628V34.8391C74.9628 33.8802 75.7512 33.0918 76.7101 33.0918H84.5515C85.5104 33.0918 86.2988 33.8802 86.2988 34.8391V79.2456Z" fill="#99E85B"/>
<path d="M94.3533 80.5028H14.7454C14.0635 80.5028 13.5095 79.9488 13.5095 79.2669C13.5095 78.585 14.0635 78.031 14.7454 78.031H94.3533C95.0352 78.031 95.5892 78.585 95.5892 79.2669C95.5892 79.9488 95.0352 80.5028 94.3533 80.5028Z" fill="#525293"/>
<path d="M94.3533 78.0098H54.3575V80.5028H94.3533C95.0351 80.5028 95.5892 79.9488 95.5892 79.267C95.5892 78.5638 95.0351 78.0098 94.3533 78.0098Z" fill="#2B2B60"/>
</g>
<defs>
<clipPath id="clip0_19_475">
<rect width="109.099" height="100" fill="white"/>
</clipPath>
</defs>
</svg>
