<svg width="100" height="100" viewBox="0 0 100 100" fill="none" xmlns="http://www.w3.org/2000/svg">
<path d="M49.433 6.92481C49.433 7.78223 50.1281 8.47734 50.9855 8.47734H57.9103L49.433 0V6.92481Z" fill="#306485"/>
<path d="M49.433 0H29.7922C28.9347 0 28.2396 0.695117 28.2396 1.55254V38.8264C28.2396 39.6838 28.9347 40.3789 29.7922 40.3789H57.9103V8.47754H50.9855C50.1281 8.47754 49.433 7.78242 49.433 6.925V0Z" fill="#3B7BA3"/>
<path d="M64.3799 30.3493C64.3799 31.2067 65.075 31.9019 65.9324 31.9019H72.8574L64.3801 23.4243V30.3493H64.3799Z" fill="#3B7BA3"/>
<path d="M64.3799 23.4245H44.7391C43.8816 23.4245 43.1865 24.1196 43.1865 24.9771V63.8034H72.8574V31.9017H65.9326C65.0752 31.9017 64.3801 31.2065 64.3801 30.3491V23.4243L64.3799 23.4245Z" fill="#4EA4D9"/>
<path d="M58.0221 23.4243H44.7393C43.8819 23.4243 43.1868 24.1194 43.1868 24.9769V63.8032H58.0221V23.4243Z" fill="#56B5F0"/>
<path d="M43.0749 0H29.792C28.9346 0 28.2395 0.695117 28.2395 1.55254V38.8264C28.2395 39.6838 28.9346 40.3789 29.792 40.3789H43.0749V0Z" fill="#4590BF"/>
<path d="M49.9998 90.5383L19.9949 60.5334H80.0048L49.9998 90.5383Z" fill="black" stroke="black" stroke-miterlimit="10" stroke-linejoin="round"/>
<path d="M83.0965 59.2528C82.5785 58.0022 81.3584 57.187 80.0049 57.187H19.9949C18.6414 57.187 17.4215 58.0022 16.9033 59.2528C16.3855 60.5034 16.6717 61.9427 17.6289 62.8997L40.8531 86.1239V96.6536C40.8531 98.5017 42.3513 99.9999 44.1994 99.9999H55.8C57.648 99.9999 59.1463 98.5017 59.1463 96.6536V86.1239L82.3707 62.8995C83.3281 61.9425 83.6144 60.503 83.0965 59.2528Z" fill="#FF9800"/>
<path d="M49.9998 57.187H19.9949C18.6414 57.187 17.4215 58.0022 16.9033 59.2528C16.3855 60.5034 16.6717 61.9427 17.6289 62.8997L40.8531 86.1239V96.6536C40.8531 98.5017 42.3513 99.9999 44.1994 99.9999H49.9998V57.187Z" fill="#F7DC4D"/>
<path d="M40.7936 86.0642L40.8531 86.1238V96.6535C40.8531 98.5017 42.3514 99.9998 44.1994 99.9998H55.8C57.6483 99.9998 59.1463 98.5015 59.1463 96.6535V86.1238L59.2059 86.0642H40.7936Z" fill="#B36A00"/>
<path d="M49.9542 86.0642H40.7937L40.8533 86.1238V96.6535C40.8533 98.5017 42.3515 99.9998 44.1996 99.9998H49.9541V86.0642H49.9542Z" fill="#C97700"/>
</svg>
