<svg width="100" height="100" viewBox="0 0 100 100" fill="none" xmlns="http://www.w3.org/2000/svg">
<path d="M95.0278 63.3233H41.6488C38.9027 63.3233 36.6767 61.0973 36.6767 58.3512V4.97216C36.6767 2.22608 38.9027 0 41.6488 0H95.0278C97.7739 0 100 2.22608 100 4.97216V58.3512C100 61.0973 97.7739 63.3233 95.0278 63.3233Z" fill="url(#paint0_linear_19_319)"/>
<path d="M36.6767 26.6467V58.3512C36.6767 61.0973 38.9027 63.3234 41.6488 63.3234H95.0278C97.7739 63.3234 100 61.0973 100 58.3512V26.6467H36.6767Z" fill="url(#paint1_linear_19_319)"/>
<path d="M79.8567 19.4777V63.3233H95.0278C97.7739 63.3233 100 61.0973 100 58.3512V39.621L79.8567 19.4777Z" fill="url(#paint2_linear_19_319)"/>
<path d="M76.6894 81.6615H23.3106C20.5645 81.6615 18.3384 79.4354 18.3384 76.6894V23.3105C18.3384 20.5645 20.5645 18.3384 23.3106 18.3384H76.6896C79.4357 18.3384 81.6618 20.5645 81.6618 23.3105V76.6896C81.6616 79.4354 79.4355 81.6615 76.6894 81.6615Z" fill="url(#paint3_linear_19_319)"/>
<path d="M76.6894 18.3384H36.6767V58.3511C36.6767 61.0972 38.9027 63.3233 41.6488 63.3233H81.6616V23.3105C81.6616 20.5645 79.4355 18.3384 76.6894 18.3384Z" fill="url(#paint4_linear_19_319)"/>
<path d="M18.3384 44.9849V76.6894C18.3384 79.4355 20.5645 81.6615 23.3106 81.6615H76.6896C79.4357 81.6615 81.6618 79.4355 81.6618 76.6894V44.9849H18.3384Z" fill="url(#paint5_linear_19_319)"/>
<path d="M61.5184 37.8158V81.6615H76.6896C79.4357 81.6615 81.6618 79.4354 81.6618 76.6893V57.9591L61.5184 37.8158Z" fill="url(#paint6_linear_19_319)"/>
<path d="M58.3512 100H4.97216C2.22608 100 0 97.7739 0 95.0278V41.6488C0 38.9027 2.22608 36.6766 4.97216 36.6766H58.3512C61.0973 36.6766 63.3233 38.9027 63.3233 41.6488V95.0278C63.3233 97.7739 61.0973 100 58.3512 100Z" fill="url(#paint7_linear_19_319)"/>
<path d="M0 63.3234V95.0279C0 97.774 2.22608 100 4.97216 100H58.3512C61.0973 100 63.3233 97.774 63.3233 95.0279V63.3234H0Z" fill="url(#paint8_linear_19_319)"/>
<path d="M58.3512 36.6766H18.3384V76.6894C18.3384 79.4355 20.5645 81.6615 23.3106 81.6615H63.3233V41.6488C63.3233 38.9027 61.0973 36.6766 58.3512 36.6766Z" fill="url(#paint9_linear_19_319)"/>
<path d="M63.3233 41.6488C63.3233 38.9027 61.0973 36.6766 58.3512 36.6766H36.6767V58.3511C36.6767 61.0972 38.9027 63.3233 41.6488 63.3233H63.3233V41.6488Z" fill="url(#paint10_linear_19_319)"/>
<defs>
<linearGradient id="paint0_linear_19_319" x1="46.72" y1="10.0433" x2="92.8375" y2="56.1608" gradientUnits="userSpaceOnUse">
<stop stop-color="#FEE45A"/>
<stop offset="1" stop-color="#FEA613"/>
</linearGradient>
<linearGradient id="paint1_linear_19_319" x1="68.3384" y1="46.9538" x2="68.3384" y2="63.1295" gradientUnits="userSpaceOnUse">
<stop stop-color="#FEA613" stop-opacity="0"/>
<stop offset="1" stop-color="#E94444"/>
</linearGradient>
<linearGradient id="paint2_linear_19_319" x1="95.6278" y1="43.5388" x2="72.4906" y2="40.4016" gradientUnits="userSpaceOnUse">
<stop stop-color="#FEA613" stop-opacity="0"/>
<stop offset="1" stop-color="#E94444"/>
</linearGradient>
<linearGradient id="paint3_linear_19_319" x1="30.9435" y1="30.9435" x2="75.6555" y2="75.6554" gradientUnits="userSpaceOnUse">
<stop stop-color="#FEAEE1"/>
<stop offset="1" stop-color="#FE2AA8"/>
</linearGradient>
<linearGradient id="paint4_linear_19_319" x1="24.5614" y1="6.22289" x2="77.8177" y2="59.4794" gradientUnits="userSpaceOnUse">
<stop stop-color="#FEA613" stop-opacity="0"/>
<stop offset="1" stop-color="#E94444"/>
</linearGradient>
<linearGradient id="paint5_linear_19_319" x1="50" y1="65.2921" x2="50" y2="81.4678" gradientUnits="userSpaceOnUse">
<stop stop-color="#FE0364" stop-opacity="0"/>
<stop offset="0.3975" stop-color="#F70360" stop-opacity="0.398"/>
<stop offset="0.9701" stop-color="#E40257" stop-opacity="0.97"/>
<stop offset="1" stop-color="#E30256"/>
</linearGradient>
<linearGradient id="paint6_linear_19_319" x1="77.2894" y1="61.8772" x2="54.1522" y2="58.7399" gradientUnits="userSpaceOnUse">
<stop stop-color="#A72B2B" stop-opacity="0"/>
<stop offset="1" stop-color="#42210B"/>
</linearGradient>
<linearGradient id="paint7_linear_19_319" x1="7.66745" y1="44.3441" x2="63.2137" y2="99.8904" gradientUnits="userSpaceOnUse">
<stop stop-color="#B3DAFE"/>
<stop offset="1" stop-color="#0182FC"/>
</linearGradient>
<linearGradient id="paint8_linear_19_319" x1="31.6618" y1="83.6304" x2="31.6618" y2="99.8061" gradientUnits="userSpaceOnUse">
<stop stop-color="#0182FC" stop-opacity="0"/>
<stop offset="1" stop-color="#024C67"/>
</linearGradient>
<linearGradient id="paint9_linear_19_319" x1="11.922" y1="30.2602" x2="74.6494" y2="92.9876" gradientUnits="userSpaceOnUse">
<stop stop-color="#FE0364" stop-opacity="0"/>
<stop offset="0.3975" stop-color="#F70360" stop-opacity="0.398"/>
<stop offset="0.9701" stop-color="#E40257" stop-opacity="0.97"/>
<stop offset="1" stop-color="#E30256"/>
</linearGradient>
<linearGradient id="paint10_linear_19_319" x1="28.2967" y1="28.2966" x2="56.6284" y2="56.6284" gradientUnits="userSpaceOnUse">
<stop stop-color="#FE0364" stop-opacity="0"/>
<stop offset="0.3975" stop-color="#F70360" stop-opacity="0.398"/>
<stop offset="0.9701" stop-color="#E40257" stop-opacity="0.97"/>
<stop offset="1" stop-color="#E30256"/>
</linearGradient>
</defs>
</svg>
