<svg width="100" height="100" viewBox="0 0 100 100" fill="none" xmlns="http://www.w3.org/2000/svg">
<path d="M50.0111 94.0602L51.6742 90.3794C52.1195 89.3936 52.0883 88.2545 51.5746 87.3028C49.7494 83.9204 48.707 80.0532 48.6924 75.9436C48.6445 62.6381 59.5082 51.7229 72.8137 51.7102C86.167 51.6975 96.9943 62.5249 96.982 75.878C96.9697 89.1837 86.0545 100.047 72.749 99.9997C68.6393 99.985 64.7721 98.9426 61.3897 97.1172C60.4379 96.6036 59.2986 96.5723 58.3131 97.0176L54.6322 98.6807C53.3082 99.279 51.752 98.995 50.7246 97.9676C49.6969 96.9405 49.4129 95.3844 50.0111 94.0602Z" fill="#FFEE6E"/>
<path d="M66.8008 75.8782C66.7914 65.7357 73.0365 57.0521 81.8914 53.4673C79.0883 52.3325 76.0244 51.7073 72.8137 51.7105C59.5082 51.7232 48.6445 62.6384 48.6924 75.9439C48.7072 80.0534 49.7494 83.9206 51.5748 87.303C52.0885 88.255 52.1195 89.3941 51.6744 90.3796L50.0113 94.0605C49.4131 95.3845 49.6971 96.9407 50.7244 97.9681C51.7518 98.9954 53.308 99.2794 54.632 98.6812L58.3129 97.0181C59.2986 96.5728 60.4377 96.604 61.3895 97.1177C64.7719 98.9431 68.6391 99.9853 72.7488 100C75.9779 100.012 79.0654 99.379 81.8914 98.2261C73.0732 94.629 66.8102 85.9546 66.8008 75.8782Z" fill="#FFDA45"/>
<path d="M83.4004 79.6276V70.3218C83.4004 64.4878 78.6711 59.7583 72.8371 59.7583C67.0031 59.7583 62.2738 64.4876 62.2738 70.3218V79.6276C60.3291 79.6276 58.7527 81.2042 58.7527 83.1487C58.7527 85.0935 60.3291 86.6698 62.2738 86.6698H67.5555C67.5555 89.5868 69.9201 91.9515 72.8371 91.9515C75.7541 91.9515 78.1188 89.5868 78.1188 86.6698H83.4004C85.3451 86.6698 86.9215 85.0933 86.9215 83.1487C86.9215 81.2042 85.3451 79.6276 83.4004 79.6276Z" fill="#F5FAFC"/>
<path d="M69.3158 83.1487C69.3158 81.204 70.8922 79.6276 72.8369 79.6276V70.3218C72.8369 66.4124 74.9621 63.0019 78.1186 61.1751C76.5645 60.2757 74.7615 59.7583 72.8369 59.7583C67.0029 59.7583 62.2734 64.4876 62.2734 70.3218V79.6276C60.3287 79.6276 58.7523 81.204 58.7523 83.1487C58.7523 85.0935 60.3287 86.6698 62.2734 86.6698H67.5551C67.5551 89.5868 69.9197 91.9515 72.8367 91.9515C75.7537 91.9515 78.1184 89.5868 78.1184 86.6698H72.8367C70.8924 86.6698 69.3158 85.0935 69.3158 83.1487Z" fill="#E1F1FA"/>
<path d="M54.7992 71.2392L52.859 66.9449C52.3395 65.7949 52.3758 64.466 52.975 63.3554C55.1045 59.4093 56.3205 54.8976 56.3377 50.1031C56.3934 34.58 43.7193 21.8455 28.1961 21.8308C12.6176 21.8162 -0.0144407 34.448 1.23902e-05 50.0267C0.0144655 65.55 12.7488 78.2244 28.2719 78.1687C33.0666 78.1515 37.5783 76.9355 41.5244 74.806C42.635 74.2068 43.9639 74.1703 45.1139 74.69L49.4082 76.6302C50.9529 77.3281 52.7686 76.9968 53.9672 75.7982C55.1658 74.5996 55.4973 72.7839 54.7992 71.2392Z" fill="#FF808C"/>
<path d="M16.0967 50.0267C16.0848 37.2619 24.5643 26.4775 36.1977 23.0054C33.6592 22.2453 30.9738 21.8336 28.1965 21.8308C12.6176 21.8162 -0.0144407 34.448 1.23902e-05 50.0267C0.0144655 65.55 12.7488 78.2244 28.2721 78.1687C31.0397 78.1588 33.7117 77.7474 36.2363 76.9935C24.635 73.5181 16.1084 62.7267 16.0967 50.0267Z" fill="#FF6E7C"/>
<path d="M39.4848 38.0827C33.2313 35.3034 28.169 40.9612 28.169 40.9612C28.169 40.9612 23.1067 35.3034 16.8531 38.0827C10.5996 40.862 10.5996 50.0933 16.1584 56.2476C20.0051 60.5063 24.2795 63.1013 26.5475 64.2958C27.5633 64.8308 28.7746 64.8308 29.7904 64.2958C32.0586 63.1013 36.333 60.5062 40.1795 56.2476C45.7383 50.0935 45.7383 40.862 39.4848 38.0827Z" fill="#F5FAFC"/>
<path d="M26.2682 51.006C26.2682 47.4597 26.9424 44.071 28.1693 40.9609C28.1693 40.9609 23.1066 35.3035 16.8531 38.0828C10.5996 40.8621 10.5996 50.0933 16.1582 56.2476C20.0049 60.5064 24.2793 63.1013 26.5473 64.2958C27.5412 64.8193 28.7219 64.8292 29.724 64.3283C27.5238 60.3849 26.2682 55.8425 26.2682 51.006Z" fill="#E1F1FA"/>
<path d="M37.3723 56.4666L39.5896 51.5588C40.1834 50.2445 40.1418 48.7258 39.457 47.4566C37.0234 42.9467 35.6336 37.7906 35.6139 32.3111C35.5502 14.5705 50.0349 0.0168115 67.7756 1.46427e-05C85.5799 -0.0167822 100.017 14.4195 100 32.2238C99.9834 49.9647 85.4299 64.4496 67.6892 64.3861C62.2096 64.3666 57.0533 62.9768 52.5433 60.543C51.2742 59.8582 49.7555 59.8164 48.4412 60.4104L43.5334 62.6277C41.768 63.4254 39.6932 63.0467 38.3232 61.6768C36.9533 60.307 36.5746 58.232 37.3723 56.4666Z" fill="#69A8FF"/>
<path d="M53.7224 32.2238C53.7088 17.5746 63.4805 5.20763 76.8611 1.29318C73.9793 0.450014 70.9306 -0.00291556 67.7756 1.41234e-05C50.0349 0.016811 35.5502 14.5705 35.6139 32.3111C35.6336 37.7906 37.0232 42.9467 39.457 47.4567C40.1418 48.7258 40.1836 50.2445 39.5896 51.5588L37.3723 56.4666C36.5746 58.232 36.9533 60.3069 38.323 61.6768C39.693 63.0467 41.7678 63.4252 43.5332 62.6276L48.441 60.4102C49.7553 59.8164 51.274 59.858 52.5432 60.5428C57.0531 62.9766 62.2094 64.3662 67.689 64.386C70.8711 64.3973 73.9496 63.9385 76.8609 63.0789C63.5404 59.1465 53.7359 46.7826 53.7224 32.2238Z" fill="#549CFF"/>
<path d="M89.1057 28.8999C89.1057 25.1495 86.0654 22.1091 82.3149 22.1091H75.6162L79.3293 16.7515C80.2004 15.4944 80.1506 13.778 79.124 12.6444C77.9029 11.2962 75.8486 11.2142 74.5266 12.4073C74.5266 12.4073 66.4858 19.6632 62.4598 23.2962C61.0328 24.5839 60.2186 26.4157 60.2186 28.3376V40.9956C60.2186 44.746 63.2588 47.7864 67.0094 47.7864H82.3152C86.0656 47.7864 89.1061 44.7462 89.1061 40.9956V28.8999H89.1057Z" fill="#F5FAFC"/>
<path d="M75.6162 22.1094L79.3293 16.7518C80.2004 15.4947 80.1506 13.7783 79.124 12.6449C77.9029 11.2967 75.8486 11.2146 74.5266 12.4078C74.5266 12.4078 66.4858 19.6637 62.4598 23.2967C61.0328 24.5844 60.2186 26.4162 60.2186 28.3381V40.9961C60.2186 44.7465 63.2588 47.7869 67.0094 47.7869H75.6162C71.866 47.7867 68.8258 44.7465 68.8258 40.9961V28.9002C68.8254 25.1496 71.8658 22.1094 75.6162 22.1094Z" fill="#E1F1FA"/>
<path d="M52.9246 47.7866H58.4578C60.6803 47.7866 62.482 45.9849 62.482 43.7624V24.6478C62.482 22.4253 60.6803 20.6235 58.4578 20.6235H52.9246C50.7021 20.6235 48.9004 22.4253 48.9004 24.6478V43.7624C48.9004 45.9849 50.7021 47.7866 52.9246 47.7866Z" fill="#F5FAFC"/>
</svg>
