<svg width="100" height="100" viewBox="0 0 100 100" fill="none" xmlns="http://www.w3.org/2000/svg">
<path d="M98.9234 54.378C98.5834 53.9728 98.1324 53.6573 97.606 53.4818L74.707 45.8507L49.8047 54.1495V91.8598L73.7808 99.8499C74.0814 99.9501 74.3943 100 74.707 100C75.0197 100 75.3326 99.9501 75.6332 99.8499L97.6058 92.5274C98.8023 92.1288 99.6093 91.0091 99.6093 89.7479V56.2612C99.6093 55.5552 99.356 54.8937 98.9234 54.378Z" fill="#8BB9FF"/>
<path d="M74.7069 62.448V100C75.0198 100 75.3325 99.95 75.6331 99.8498L97.6057 92.5273C98.8022 92.1287 99.6092 91.0089 99.6092 89.7478V56.2611C99.6092 55.5551 99.3559 54.8936 98.9233 54.3779L74.7069 62.448Z" fill="#005EDF"/>
<path d="M49.8047 54.1494V91.8597L73.7808 99.8498C74.0814 99.95 74.3943 100 74.707 100V62.448L49.8047 54.1494Z" fill="#4793FF"/>
<path d="M74.021 8.36903C73.681 7.96357 73.23 7.64833 72.7034 7.47275L50.7308 0.150293C50.1296 -0.0500976 49.4796 -0.0500976 48.8783 0.150293L26.9056 7.47275C26.3791 7.64814 25.9281 7.96357 25.588 8.36903C25.1554 8.88466 24.9021 9.54618 24.9021 10.2522V45.8506L49.8044 54.1495L74.7067 45.8506V10.2522C74.7069 9.54618 74.4536 8.88466 74.021 8.36903Z" fill="#FFDD54"/>
<path d="M74.707 10.2522C74.707 9.54617 74.4537 8.88464 74.0211 8.36902L49.8047 16.4391V54.1494L74.707 45.8506V10.2522Z" fill="#FF8E00"/>
<path d="M49.8047 16.4391L25.5883 8.36902C25.1557 8.88464 24.9023 9.54617 24.9023 10.2522V45.8506L49.8047 54.1494V16.4391Z" fill="#FFB454"/>
<path d="M74.0211 8.36906C73.681 7.96359 73.2301 7.64836 72.7035 7.47277L50.7309 0.150317C50.4303 0.050122 50.1176 0.00012207 49.8047 0.00012207V16.4392L74.0211 8.36906Z" fill="#FFB454"/>
<path d="M24.9023 45.8507L2.00332 53.4819C1.47676 53.6573 1.02598 53.9728 0.685937 54.3782C0.25332 54.8937 0 55.5552 0 56.2612V89.7479C0 91.0091 0.807031 92.1286 2.00351 92.5274L23.9762 99.8499C24.2767 99.9501 24.5896 100 24.9023 100C25.2152 100 25.5279 99.9501 25.8285 99.8499L49.8046 91.8596V54.1495L24.9023 45.8507Z" fill="#FF6B6B"/>
<path d="M0.685937 54.3781C0.25332 54.8937 0 55.5552 0 56.2613V89.7479C0 91.0091 0.807031 92.1286 2.00351 92.5274L23.9762 99.8499C24.2767 99.9501 24.5896 100 24.9023 100V62.4482L0.685937 54.3781Z" fill="#F90024"/>
<path d="M24.9023 62.4482V100C25.2152 100 25.5279 99.9501 25.8285 99.8499L49.8047 91.8597V54.1495L24.9023 62.4482Z" fill="#A50017"/>
</svg>
