<svg width="111" height="100" viewBox="0 0 111 100" fill="none" xmlns="http://www.w3.org/2000/svg">
<path d="M103.068 77.914H3.68097V30.0612C3.68097 25.9953 6.97706 22.6992 11.0429 22.6992H95.7057C99.7715 22.6992 103.068 25.9953 103.068 30.0612V77.914Z" fill="#463C4B"/>
<path d="M95.7057 77.914H3.68097V30.0612C3.68097 25.9953 6.97706 22.6992 11.0429 22.6992H88.3437C92.4096 22.6992 95.7057 25.9953 95.7057 30.0612V77.914Z" fill="#555A6E"/>
<path d="M11.0429 87.1165H95.7057C99.7715 87.1165 103.068 83.8204 103.068 79.7546V77.9141H3.68097V79.7546C3.68097 83.8204 6.97706 87.1165 11.0429 87.1165Z" fill="#A5C3DC"/>
<path d="M88.3437 87.1165H11.0429C6.97706 87.1165 3.68097 83.8204 3.68097 79.7546V77.9141H95.7057V79.7546C95.7057 83.8204 92.4096 87.1165 88.3437 87.1165Z" fill="#D7E6F0"/>
<path d="M42.3314 87.1167H58.8958V94.4787H42.3314V87.1167Z" fill="#A5C3DC"/>
<path d="M42.3314 90.7976H53.3743V94.4786H42.3314V90.7976Z" fill="#D7E6F0"/>
<path d="M68.0983 100H31.2884V98.1595C31.2884 96.1264 32.9363 94.4785 34.9694 94.4785H64.4173C66.4503 94.4785 68.0983 96.1264 68.0983 98.1595V100Z" fill="#D7E6F0"/>
<path d="M68.0983 100H57.0553V98.1595C57.0553 96.1264 58.7032 94.4785 60.7363 94.4785H64.4173C66.4503 94.4785 68.0983 96.1264 68.0983 98.1595V100Z" fill="#A5C3DC"/>
<path d="M105.828 0.920247C105.239 0.330829 104.44 0 103.607 0H92.7871C92.299 0 91.8308 0.193942 91.4857 0.539034C90.767 1.25775 90.767 2.42301 91.4857 3.14172L94.9435 6.59955L79.1413 22.4018L67.02 10.2805C65.5826 8.84311 63.2518 8.84311 61.8144 10.2805L36.0475 36.0475C34.6098 37.4849 34.6098 39.8156 36.0475 41.2531C36.7662 41.9718 37.7083 42.3314 38.6502 42.3314C39.592 42.3314 40.5341 41.9718 41.2529 41.2531L64.4171 18.0888L76.5383 30.2101C77.9758 31.6475 80.3065 31.6475 81.7439 30.2101L100.149 11.8052L103.607 15.2628C104.325 15.9815 105.491 15.9815 106.21 15.2628C106.555 14.9177 106.749 14.4495 106.749 13.9613V3.14172C106.749 2.30844 106.418 1.5092 105.828 0.920247Z" fill="#FF6E91"/>
<path d="M29.4479 96.319C31.4808 96.319 33.1289 94.671 33.1289 92.638C33.1289 90.6051 31.4808 88.957 29.4479 88.957C27.4149 88.957 25.7669 90.6051 25.7669 92.638C25.7669 94.671 27.4149 96.319 29.4479 96.319Z" fill="#D7E6F0"/>
<path d="M29.4479 88.957V96.319C31.4809 96.319 33.1289 94.6711 33.1289 92.638C33.1289 90.605 31.4809 88.957 29.4479 88.957Z" fill="#A5C3DC"/>
<path d="M33.1289 66.8712H25.7669C11.5362 66.8712 0 55.335 0 41.1043C0 26.8736 11.5362 15.3374 25.7669 15.3374H33.1289C47.3596 15.3374 58.8958 26.8736 58.8958 41.1043C58.8958 55.335 47.3596 66.8712 33.1289 66.8712Z" fill="#289BC3"/>
<path d="M25.7669 66.8712C39.9976 66.8712 51.5338 55.335 51.5338 41.1043C51.5338 26.8736 39.9976 15.3374 25.7669 15.3374C11.5362 15.3374 0 26.8736 0 41.1043C0 55.335 11.5362 66.8712 25.7669 66.8712Z" fill="#00D2D2"/>
<path d="M25.7669 58.8957C35.5928 58.8957 43.5582 50.9302 43.5582 41.1043C43.5582 31.2785 35.5928 23.313 25.7669 23.313C15.941 23.313 7.97552 31.2785 7.97552 41.1043C7.97552 50.9302 15.941 58.8957 25.7669 58.8957Z" fill="#D7E6F0"/>
<path d="M18.4049 37.4233C20.4379 37.4233 22.0859 35.7752 22.0859 33.7423C22.0859 31.7093 20.4379 30.0613 18.4049 30.0613C16.372 30.0613 14.7239 31.7093 14.7239 33.7423C14.7239 35.7752 16.372 37.4233 18.4049 37.4233Z" fill="white"/>
<path d="M25.7669 66.8711H33.1289V70.5521H25.7669V66.8711Z" fill="#D7E6F0"/>
<path d="M25.7669 66.8711V68.7116H27.6074C28.6238 68.7116 29.4479 69.5357 29.4479 70.5521H33.1289V66.8711H25.7669Z" fill="#A5C3DC"/>
<path d="M33.1289 92.6382H25.7669C24.7505 92.6382 23.9264 91.8141 23.9264 90.7977V72.3927C23.9264 71.3763 24.7505 70.5522 25.7669 70.5522H33.1289C34.1453 70.5522 34.9694 71.3763 34.9694 72.3927V90.7977C34.9694 91.8141 34.1453 92.6382 33.1289 92.6382Z" fill="#00D2D2"/>
<path d="M33.1289 92.6382H29.4479V70.5522H33.1289C34.1453 70.5522 34.9694 71.3763 34.9694 72.3927V90.7977C34.9694 91.8141 34.1453 92.6382 33.1289 92.6382Z" fill="#289BC3"/>
<path d="M84.6517 96.3191H88.3327C100.53 96.3191 110.419 86.4308 110.419 74.2331C110.419 62.0355 100.53 52.1472 88.3327 52.1472H84.6517C72.4541 52.1472 62.5658 62.0355 62.5658 74.2331C62.5658 86.431 72.4541 96.3191 84.6517 96.3191Z" fill="#E64178"/>
<path d="M84.6517 96.3191C96.8494 96.3191 106.738 86.4309 106.738 74.2331C106.738 62.0354 96.8494 52.1472 84.6517 52.1472C72.454 52.1472 62.5658 62.0354 62.5658 74.2331C62.5658 86.4309 72.454 96.3191 84.6517 96.3191Z" fill="#FF6E91"/>
<path d="M84.6517 88.9572C92.7835 88.9572 99.3756 82.365 99.3756 74.2332C99.3756 66.1014 92.7835 59.5093 84.6517 59.5093C76.5199 59.5093 69.9277 66.1014 69.9277 74.2332C69.9277 82.365 76.5199 88.9572 84.6517 88.9572Z" fill="#D7E6F0"/>
<path d="M84.6517 81.595C88.7176 81.595 92.0137 78.299 92.0137 74.2331C92.0137 70.1672 88.7176 66.8711 84.6517 66.8711C80.5858 66.8711 77.2897 70.1672 77.2897 74.2331C77.2897 78.299 80.5858 81.595 84.6517 81.595Z" fill="#FF6E91"/>
<path d="M84.6517 70.5522H64.4173L61.8291 66.67C61.1463 65.6459 59.9971 65.0308 58.7663 65.0308H48.9672C46.1308 65.0308 44.4389 68.192 46.0123 70.5522V74.2332H60.7252H88.3326C88.3326 72.2004 86.6845 70.5522 84.6517 70.5522Z" fill="#00D2D2"/>
<path d="M60.7252 74.2332H46.0123V77.9141C44.4389 80.2743 46.1308 83.4356 48.9672 83.4356H58.7663C59.9971 83.4356 61.1463 82.8204 61.8291 81.7964L64.4173 77.9141H84.6517C86.6847 77.9141 88.3326 76.266 88.3326 74.2332H60.7252Z" fill="#289BC3"/>
</svg>
