<svg width="100" height="100" viewBox="0 0 100 100" fill="none" xmlns="http://www.w3.org/2000/svg">
<path d="M100 8.78906C100 3.93496 96.065 0 91.2109 0H8.78906C3.93496 0 0 3.93496 0 8.78906V26.3672L1.95312 28.3203H98.0469C98.8096 27.5576 99.2373 27.1299 100 26.3672V8.78906Z" fill="#0052C2"/>
<path d="M100 8.78906V26.3672C99.2363 27.1309 98.8105 27.5566 98.0469 28.3203H50V0H91.2109C96.0645 0 100 3.93555 100 8.78906Z" fill="#003481"/>
<path d="M85.1562 11.7188H67.5781C65.9602 11.7188 64.6484 13.0305 64.6484 14.6484C64.6484 16.2664 65.9602 17.5781 67.5781 17.5781H85.1562C86.7742 17.5781 88.0859 16.2664 88.0859 14.6484C88.0859 13.0305 86.7742 11.7188 85.1562 11.7188Z" fill="#0052C2"/>
<path d="M38.2812 17.5781C39.8993 17.5781 41.2109 16.2665 41.2109 14.6484C41.2109 13.0304 39.8993 11.7188 38.2812 11.7188C36.6632 11.7188 35.3516 13.0304 35.3516 14.6484C35.3516 16.2665 36.6632 17.5781 38.2812 17.5781Z" fill="#F03800"/>
<path d="M26.5625 17.5781C28.1805 17.5781 29.4922 16.2665 29.4922 14.6484C29.4922 13.0304 28.1805 11.7188 26.5625 11.7188C24.9445 11.7188 23.6328 13.0304 23.6328 14.6484C23.6328 16.2665 24.9445 17.5781 26.5625 17.5781Z" fill="#FDBF00"/>
<path d="M14.8438 17.5781C16.4618 17.5781 17.7734 16.2665 17.7734 14.6484C17.7734 13.0304 16.4618 11.7188 14.8438 11.7188C13.2257 11.7188 11.9141 13.0304 11.9141 14.6484C11.9141 16.2665 13.2257 17.5781 14.8438 17.5781Z" fill="#37D742"/>
<path d="M0 26.3672V90.8203C0 95.6666 3.94277 99.6094 8.78906 99.6094H91.2109C96.0572 99.6094 100 95.6666 100 90.8203V26.3672H0Z" fill="#E0F4FF"/>
<path d="M100 26.3672V90.8203C100 95.666 96.0566 99.6094 91.2109 99.6094H50V26.3672H100Z" fill="#B8E0F5"/>
<path d="M59.9431 38.3228C58.456 37.6855 56.7336 38.3744 56.0963 39.8615L38.5181 80.8771C37.8806 82.3642 38.5697 84.0867 40.0568 84.724C41.5445 85.3615 43.2666 84.672 43.9037 83.1853L61.4818 42.1697C62.1193 40.6824 61.4303 38.9601 59.9431 38.3228Z" fill="#FF641A"/>
<path d="M61.4824 42.1699L50 68.9629V54.084L56.0957 39.8613C56.7344 38.375 58.4551 37.6855 59.9434 38.3223C61.4297 38.9609 62.1191 40.6816 61.4824 42.1699Z" fill="#F03800"/>
<path d="M34.2519 70.9544L22.4633 61.5234L34.2519 52.0923C35.5156 51.0816 35.7203 49.238 34.7095 47.9746C33.6986 46.7111 31.8547 46.5064 30.5918 47.5171L15.9433 59.2359C14.4787 60.4072 14.4777 62.639 15.9433 63.8113L30.5918 75.53C31.8552 76.541 33.6992 76.3359 34.7095 75.0726C35.7203 73.8087 35.5156 71.9652 34.2519 70.9544Z" fill="#FF641A"/>
<path d="M84.0566 59.2357L69.4082 47.517C68.1447 46.506 66.301 46.7109 65.2904 47.9744C64.2797 49.2379 64.4844 51.0816 65.7481 52.0922L77.5367 61.5234L65.7481 70.9545C64.4844 71.9652 64.2797 73.8088 65.2904 75.0722C66.3025 76.3371 68.1465 76.5394 69.4082 75.5297L84.0566 63.8109C85.5213 62.6396 85.5223 60.408 84.0566 59.2357Z" fill="#F03800"/>
</svg>
