<svg width="50" height="51" viewBox="0 0 50 51" fill="none" xmlns="http://www.w3.org/2000/svg">
<path d="M25.2188 0.648356C25.1592 0.609173 25.0897 0.587786 25.0184 0.586699C24.9471 0.585609 24.877 0.604869 24.8162 0.642217C20.7468 3.11267 16.0404 13.5171 16.0387 21.7022C16.0328 23.1565 16.1537 24.6086 16.3999 26.0419C15.026 27.1925 13.8569 28.548 13.25 30.0929C11.5506 34.4643 14.1528 38.8341 15.4062 40.5799C15.4743 40.6759 15.5637 40.7548 15.6675 40.8105C15.7713 40.8661 15.8866 40.8968 16.0043 40.9004C16.122 40.9039 16.2389 40.88 16.3458 40.8307C16.4527 40.7814 16.5467 40.708 16.6205 40.6162L20.9573 35.204C21.3283 35.5681 21.7175 35.913 22.1236 36.2374C22.4017 36.4666 22.7514 36.591 23.1117 36.5892L26.8825 36.5847C27.2428 36.5861 27.5923 36.4617 27.8707 36.233C28.2745 35.9104 28.6617 35.5675 29.0308 35.2057L33.3643 40.6089C33.4381 40.7006 33.5322 40.7739 33.6391 40.8231C33.746 40.8723 33.8628 40.8961 33.9805 40.8926C34.0981 40.8891 34.2133 40.8583 34.3171 40.8028C34.4209 40.7473 34.5104 40.6685 34.5786 40.5726C35.8353 38.8358 38.4437 34.4598 36.7364 30.0962C36.1295 28.5514 34.9694 27.1992 33.6049 26.0514C33.8532 24.616 33.9759 23.1617 33.9717 21.705C33.9924 13.5132 29.4384 3.29356 25.2188 0.648356ZM25.001 20.9279C24.2514 20.9281 23.5185 20.706 22.895 20.2897C22.2716 19.8734 21.7857 19.2815 21.4987 18.5889C21.2117 17.8964 21.1365 17.1343 21.2827 16.399C21.4289 15.6637 21.7899 14.9883 22.32 14.4582C22.8501 13.9281 23.5255 13.5672 24.2607 13.421C24.996 13.2748 25.7581 13.3499 26.4507 13.6369C27.1432 13.9239 27.7351 14.4099 28.1514 15.0333C28.5678 15.6567 28.7899 16.3896 28.7896 17.1393C28.79 17.6369 28.6922 18.1297 28.502 18.5895C28.3117 19.0493 28.0326 19.4671 27.6808 19.819C27.3289 20.1709 26.9111 20.4499 26.4513 20.6402C25.9915 20.8305 25.4986 20.9282 25.001 20.9279Z" fill="#3580F6"/>
<path d="M28.118 38.0772C28.1186 38.6897 27.7473 39.2999 27.2588 39.9927C26.1578 41.5459 23.8392 41.571 22.736 39.991C22.3184 39.3914 21.8746 38.4094 21.8746 38.0744C21.8753 38.0019 21.8531 37.931 21.8113 37.8718C21.7694 37.8126 21.7099 37.7681 21.6413 37.7446C21.5727 37.7211 21.4985 37.7199 21.4291 37.741C21.3597 37.7621 21.2988 37.8045 21.2549 37.8623C20.6036 38.6952 20.2496 39.722 20.2494 40.7794C20.2505 43.4056 25.001 48.404 25.001 48.404C25.001 48.404 29.7544 43.4028 29.7532 40.7766C29.7551 39.718 29.4005 38.6897 28.7466 37.8572C28.5339 37.6032 28.1107 37.7484 28.118 38.0772Z" fill="#3580F6"/>
</svg>
