<svg width="220" height="98" viewBox="0 0 220 98" fill="none" xmlns="http://www.w3.org/2000/svg">
<path d="M17.0178 48.1688C11.1411 48.1688 5.76669 45.2154 2.63245 40.273C-2.38033 32.357 -0.0196027 21.8392 7.89134 16.8264C10.6137 15.1036 13.7429 14.1945 16.9525 14.1945C17.4096 14.1945 17.8717 14.2146 18.3237 14.2497L19.8457 14.3753L11.0909 0.55251C13.0096 0.185844 14.9685 0 16.9274 0C17.068 0 17.2087 0 17.3493 0L31.3429 22.0904C34.226 26.641 34.7835 32.1511 32.8698 37.204C31.5639 40.6698 29.2132 43.5529 26.084 45.5369C23.3666 47.2597 20.2324 48.1688 17.0228 48.1688H17.0178ZM16.9776 19.7648C14.8178 19.7648 12.7082 20.3776 10.8799 21.5378C5.56577 24.9082 3.98359 31.9702 7.34887 37.2844C9.45344 40.6095 13.0648 42.5935 17.0027 42.5935C19.1575 42.5935 21.2671 41.9807 23.0954 40.8205C25.6721 39.188 27.4552 36.6515 28.1233 33.678C28.7913 30.7045 28.2589 27.6456 26.6315 25.0689C24.5269 21.7488 20.9205 19.7648 16.9826 19.7648H16.9776Z" fill="#3580F6"/>
<path d="M57.0044 48.1688C53.7949 48.1688 50.6606 47.2597 47.9433 45.5369C44.809 43.5529 42.4584 40.6698 41.1524 37.204C39.2438 32.146 39.8013 26.636 42.6844 22.0904L56.678 0C56.8186 0 56.9592 0 57.0999 0C59.0538 0 61.0127 0.185844 62.9314 0.55251L54.1766 14.3753L55.6985 14.2548C56.1556 14.2196 56.6177 14.1995 57.0748 14.1995C60.2843 14.1995 63.4136 15.1086 66.1359 16.8315C74.0519 21.8442 76.4126 32.362 71.3998 40.283C68.2656 45.2255 62.8912 48.1789 57.0145 48.1789L57.0044 48.1688ZM57.0446 19.7648C53.1067 19.7648 49.5004 21.7488 47.3958 25.0689C45.7634 27.6456 45.231 30.6995 45.899 33.678C46.567 36.6515 48.3501 39.188 50.9268 40.8205C52.7551 41.9807 54.8647 42.5935 57.0245 42.5935C60.9624 42.5935 64.5738 40.6095 66.6734 37.2844C68.3058 34.7077 68.8382 31.6538 68.1702 28.6803C67.5021 25.7068 65.719 23.1703 63.1423 21.5378C61.309 20.3776 59.1994 19.7648 57.0446 19.7648Z" fill="#3580F6"/>
<path d="M36.9936 97.1412C28.942 97.1412 21.3475 94.0973 15.521 88.5572L19.469 84.6092C24.2356 89.0996 30.4338 91.5608 36.9936 91.5608C41.2881 91.5608 45.5424 90.4709 49.2945 88.4115L50.1483 87.9444L46.8182 84.338C48.4858 83.449 50.0178 82.3389 51.394 81.0229L56.1104 86.1362L58.5013 88.527C56.9392 90.0138 55.2465 91.3197 53.4534 92.4398C48.521 95.5188 42.8301 97.1412 36.9936 97.1412Z" fill="#3580F6"/>
<path d="M36.9935 82.9417C27.626 82.9417 20.0063 75.3171 20.0063 65.9495C20.0063 63.1819 20.6493 60.545 21.9251 58.1089C23.005 56.0395 24.4716 54.2413 26.2849 52.7696C28.0429 51.3381 30.0922 50.2632 32.252 49.6304C32.8547 51.7651 34.8036 53.287 37.104 53.287C39.4045 53.287 41.3182 51.7902 41.936 49.6856C49.0734 51.8505 53.9907 58.4253 53.9907 65.9495C53.9907 70.3395 52.3181 74.5034 49.2793 77.6828C47.657 79.3755 45.7483 80.6965 43.6086 81.6006C41.5191 82.4897 39.294 82.9417 36.9985 82.9417H36.9935ZM36.9935 54.5326C34.5173 54.5326 32.1565 55.3162 30.1776 56.7929C28.0027 58.4203 26.4757 60.7609 25.873 63.3929C25.6821 64.2066 25.5867 65.0705 25.5867 65.9495C25.5867 72.2431 30.705 77.3614 36.9985 77.3614C37.541 77.3614 38.0935 77.3212 38.6511 77.2458C41.3282 76.8541 43.7844 75.518 45.5775 73.4837C47.4058 71.4043 48.4154 68.7271 48.4154 65.9545C48.4154 59.6609 43.2972 54.5427 37.0036 54.5427L36.9935 54.5326Z" fill="white"/>
<path d="M48.9228 31.5485C48.9228 27.058 52.5643 23.4165 57.0547 23.4165C61.5451 23.4165 65.1866 27.058 65.1866 31.5485H61.3341C61.3341 29.1877 59.4154 27.269 57.0547 27.269C54.694 27.269 52.7753 29.1877 52.7753 31.5485H48.9228Z" fill="white"/>
<path d="M57.0597 33.6881C58.2414 33.6881 59.1994 32.7301 59.1994 31.5484C59.1994 30.3667 58.2414 29.4087 57.0597 29.4087C55.878 29.4087 54.92 30.3667 54.92 31.5484C54.92 32.7301 55.878 33.6881 57.0597 33.6881Z" fill="#3580F6"/>
<path d="M8.68497 31.5485C8.68497 27.058 12.3265 23.4165 16.8169 23.4165C21.3073 23.4165 24.9489 27.058 24.9489 31.5485H21.0964C21.0964 29.1877 19.1776 27.269 16.8169 27.269C14.4562 27.269 12.5375 29.1877 12.5375 31.5485H8.68497Z" fill="white"/>
<path d="M16.8219 33.6881C18.0036 33.6881 18.9616 32.7301 18.9616 31.5484C18.9616 30.3667 18.0036 29.4087 16.8219 29.4087C15.6402 29.4087 14.6822 30.3667 14.6822 31.5484C14.6822 32.7301 15.6402 33.6881 16.8219 33.6881Z" fill="#3580F6"/>
<path d="M101.375 12.0026C100.297 10.2091 98.7742 8.81713 96.8149 7.83968C94.8469 6.85787 92.5516 6.36914 89.9247 6.36914H80.4818V30.452H89.9553C92.5604 30.452 94.8382 29.9502 96.7931 28.9465C98.7436 27.9429 100.267 26.5291 101.362 24.7138C102.453 22.8985 102.998 20.7735 102.998 18.3429C102.998 15.9124 102.457 13.8004 101.371 12.0069L101.375 12.0026ZM97.5611 22.7938C96.8803 24.1073 95.8942 25.1371 94.6025 25.8658C93.3109 26.6033 91.7487 26.9742 89.9204 26.9742H84.828V9.84695H89.9204C91.7705 9.84695 93.3327 10.2004 94.62 10.9029C95.8985 11.6011 96.8803 12.5917 97.5611 13.8615C98.2418 15.1313 98.5821 16.6062 98.5821 18.2775C98.5821 19.9487 98.2418 21.4716 97.5611 22.7938Z" fill="white"/>
<path d="M110.704 8.47677C110.704 7.31276 109.761 6.36914 108.597 6.36914C107.433 6.36914 106.489 7.31276 106.489 8.47677V8.53786C106.489 9.70187 107.433 10.6455 108.597 10.6455C109.761 10.6455 110.704 9.70187 110.704 8.53786V8.47677Z" fill="white"/>
<path d="M110.722 13.3901H106.507V30.4475H110.722V13.3901Z" fill="white"/>
<path d="M122.224 37.6433C119.973 37.6433 118.127 37.1546 116.687 36.1727C115.247 35.1909 114.396 33.8644 114.13 32.1931H118.144C118.345 32.7735 118.786 33.2229 119.466 33.5458C120.147 33.8687 121.033 34.0302 122.124 34.0302C123.708 34.0302 124.877 33.6811 125.637 32.9786C126.396 32.276 126.776 31.2113 126.776 29.7844V26.1059L127.077 26.1713C126.81 27.4193 126.13 28.4186 125.034 29.1648C123.944 29.9109 122.604 30.2862 121.02 30.2862C119.436 30.2862 118.184 29.9284 117.058 29.2171C115.932 28.5059 115.055 27.5066 114.431 26.2237C113.807 24.9408 113.493 23.444 113.493 21.7248C113.493 20.0055 113.816 18.4695 114.461 17.1779C115.107 15.8863 116.015 14.8739 117.189 14.1495C118.358 13.4252 119.724 13.063 121.286 13.063C122.848 13.063 124.214 13.447 125.248 14.215C126.282 14.983 126.924 16.0477 127.173 17.4092L126.906 17.4441V13.3946H131.021V29.7495C131.021 32.18 130.236 34.1044 128.665 35.5182C127.094 36.932 124.947 37.6433 122.224 37.6433ZM122.394 26.9393C123.756 26.9393 124.842 26.4768 125.654 25.5517C126.47 24.6266 126.876 23.3262 126.876 21.655C126.876 19.9837 126.461 18.6877 125.637 17.7757C124.812 16.8637 123.717 16.4055 122.36 16.4055C121.002 16.4055 119.938 16.8681 119.113 17.7932C118.288 18.7182 117.874 20.0186 117.874 21.6899C117.874 23.3611 118.284 24.6571 119.113 25.5691C119.938 26.4855 121.029 26.9393 122.39 26.9393H122.394Z" fill="white"/>
<path d="M139.369 8.47677C139.369 7.31276 138.425 6.36914 137.261 6.36914C136.097 6.36914 135.154 7.31276 135.154 8.47677V8.53786C135.154 9.70187 136.097 10.6455 137.261 10.6455C138.425 10.6455 139.369 9.70187 139.369 8.53786V8.47677Z" fill="white"/>
<path d="M139.386 13.3901H135.171V30.4475H139.386V13.3901Z" fill="white"/>
<path d="M149.117 16.7016V24.9314C149.117 25.7561 149.344 26.367 149.785 26.7729C150.23 27.1699 150.933 27.3707 151.897 27.3707C152.272 27.3707 152.613 27.3401 152.914 27.2878C153.219 27.231 153.503 27.1569 153.769 27.0696V30.3467C153.503 30.4863 153.123 30.591 152.634 30.6652C152.146 30.7481 151.596 30.7874 150.998 30.7874C148.899 30.7874 147.359 30.2899 146.368 29.2994C145.369 28.3088 144.876 26.8209 144.876 24.831V16.706H141.599V13.394H144.876V9.51472L149.126 7.93945V13.394H153.773V16.706H149.126L149.117 16.7016Z" fill="white"/>
<path d="M170.844 28.676C170.77 28.1219 170.73 27.5764 170.73 27.0397V19.3117C170.73 17.2652 170.133 15.7073 168.924 14.647C167.719 13.591 165.948 13.063 163.6 13.063C161.253 13.063 159.559 13.5517 158.22 14.5335C156.88 15.5153 156.121 16.7939 155.942 18.3822H159.991C160.122 17.6884 160.489 17.1604 161.082 16.7895C161.671 16.4273 162.466 16.2397 163.469 16.2397C164.473 16.2397 165.263 16.4666 165.765 16.9248C166.266 17.3786 166.515 18.055 166.515 18.9495V19.7961L161.964 20.4811C159.895 20.7997 158.285 21.4106 157.146 22.3226C156.012 23.239 155.44 24.4782 155.44 26.036C155.44 27.4891 155.946 28.6411 156.963 29.4964C157.98 30.356 159.346 30.788 161.065 30.788C162.535 30.788 163.775 30.4695 164.791 29.8324C165.594 29.3306 166.223 28.6455 166.659 27.7728C166.672 28.2266 166.694 28.628 166.733 28.9858C166.786 29.5182 166.873 30.0069 166.982 30.4564H171.197C171.04 29.8324 170.927 29.2389 170.844 28.6804V28.676ZM165.306 26.6688C164.503 27.2753 163.5 27.572 162.295 27.572C161.471 27.572 160.825 27.3975 160.358 27.0528C159.891 26.708 159.655 26.2106 159.655 25.5648C159.655 24.8491 159.909 24.295 160.41 23.8935C160.912 23.4877 161.663 23.2128 162.666 23.0557L166.515 22.4666V24.4608C166.515 25.3248 166.118 26.0622 165.311 26.6644L165.306 26.6688Z" fill="white"/>
<path d="M174.675 30.4476V6.36475H178.89V30.4476H174.675Z" fill="white"/>
<path d="M102.112 51.6459C101.523 50.6641 100.729 49.9048 99.721 49.355C99.3501 49.1543 98.9661 48.9841 98.5603 48.8575C98.8178 48.7659 99.0752 48.6612 99.3196 48.5346C100.236 48.0677 100.965 47.4044 101.51 46.5448C102.06 45.6852 102.33 44.6772 102.33 43.5165C102.33 41.6663 101.68 40.2001 100.376 39.1179C99.0665 38.0401 97.3341 37.499 95.1741 37.499H80.5647V61.5819H95.6061C97.0985 61.5819 98.4032 61.3113 99.5029 60.779C100.602 60.2422 101.462 59.483 102.073 58.5011C102.688 57.5193 102.994 56.3717 102.994 55.0582C102.994 53.7448 102.701 52.6233 102.104 51.6459H102.112ZM94.3712 40.7107C95.5494 40.7107 96.4483 40.9856 97.0636 41.5485C97.6745 42.1026 97.98 42.9143 97.98 43.9877C97.98 45.0612 97.657 45.9121 97.0112 46.4968C96.3654 47.0815 95.436 47.3695 94.2316 47.3695H84.9109V40.715H94.3669L94.3712 40.7107ZM97.5785 57.3491C96.9109 58.0299 95.964 58.3702 94.7334 58.3702H84.9109V50.5768H94.5371C95.8069 50.5768 96.7974 50.9303 97.513 51.6415C98.2287 52.3572 98.5821 53.3259 98.5821 54.5521C98.5821 55.7782 98.2461 56.6641 97.5785 57.3448V57.3491Z" fill="white"/>
<path d="M122.229 44.1885V61.2459H118.11V58.0561C117.577 59.0292 116.848 59.8321 115.919 60.4561C114.819 61.2066 113.519 61.5819 112.027 61.5819C110.844 61.5819 109.823 61.3288 108.963 60.827C108.104 60.3252 107.445 59.6401 106.991 58.7717C106.528 57.899 106.306 56.9215 106.306 55.8263V44.1885H110.521V54.9535C110.521 56.0052 110.779 56.795 111.307 57.3317C111.83 57.8684 112.568 58.1346 113.532 58.1346C114.396 58.1346 115.164 57.9383 115.823 57.5368C116.482 57.131 117.006 56.5724 117.39 55.8481C117.782 55.1194 117.979 54.3034 117.979 53.3914V44.1928H122.229V44.1885Z" fill="white"/>
<path d="M132.727 61.5819C130.362 61.5819 128.477 61.0845 127.072 60.0939C125.667 59.1034 124.899 57.7245 124.764 55.9616H128.613C128.726 56.83 129.136 57.4889 129.852 57.934C130.568 58.379 131.523 58.6016 132.727 58.6016C133.818 58.6016 134.639 58.4314 135.184 58.0823C135.73 57.7376 136.005 57.2401 136.005 56.5943C136.005 56.1274 135.847 55.7434 135.538 55.4423C135.223 55.1412 134.634 54.8925 133.766 54.6918L131.021 54.0547C129.149 53.6532 127.762 53.0249 126.858 52.1652C125.955 51.3056 125.506 50.2322 125.506 48.9362C125.506 47.3522 126.112 46.1085 127.33 45.2053C128.543 44.302 130.223 43.8525 132.365 43.8525C134.508 43.8525 136.183 44.3064 137.466 45.2053C138.749 46.1085 139.456 47.3522 139.591 48.9362H135.743C135.629 48.2467 135.28 47.7231 134.691 47.3653C134.102 47.0074 133.29 46.8285 132.265 46.8285C131.305 46.8285 130.581 46.9813 130.092 47.2823C129.599 47.5834 129.354 48.0242 129.354 48.6045C129.354 49.0496 129.542 49.4249 129.922 49.726C130.301 50.0271 130.934 50.2889 131.829 50.5114L134.774 51.1791C136.445 51.5587 137.711 52.2176 138.57 53.1514C139.43 54.0896 139.858 55.1936 139.858 56.4634C139.858 58.091 139.234 59.3521 137.986 60.2423C136.738 61.1368 134.988 61.5819 132.736 61.5819H132.727Z" fill="white"/>
<path d="M146.695 39.2702C146.695 38.1062 145.752 37.1626 144.588 37.1626C143.424 37.1626 142.48 38.1062 142.48 39.2702V39.3313C142.48 40.4953 143.424 41.4389 144.588 41.4389C145.752 41.4389 146.695 40.4953 146.695 39.3313V39.2702Z" fill="white"/>
<path d="M146.695 44.5249H142.48V61.5823H146.695V44.5249Z" fill="white"/>
<path d="M167.078 49.9402V61.5823H162.832V50.8085C162.832 49.7569 162.562 48.9671 162.025 48.4304C161.488 47.8937 160.711 47.6275 159.682 47.6275C158.791 47.6275 157.993 47.8282 157.295 48.234C156.592 48.6311 156.042 49.1896 155.65 49.9053C155.261 50.6166 155.069 51.4413 155.069 52.3795V61.578H150.854V44.5206H154.973V47.6624C155.523 46.7067 156.261 45.9213 157.177 45.3017C158.294 44.5598 159.634 44.1846 161.191 44.1846C163.042 44.1846 164.49 44.7082 165.529 45.7511C166.563 46.8027 167.082 48.1947 167.082 49.9315L167.078 49.9402Z" fill="white"/>
<path d="M185.916 47.8671C185.222 46.5929 184.249 45.6067 183.001 44.9042C181.748 44.206 180.278 43.8525 178.585 43.8525C176.8 43.8525 175.238 44.2278 173.903 44.974C172.563 45.7245 171.529 46.7543 170.778 48.0809C170.028 49.4118 169.661 50.9434 169.661 52.6801C169.661 54.4169 170.032 55.9572 170.778 57.2925C171.529 58.6321 172.572 59.6794 173.92 60.443C175.269 61.1979 176.848 61.5819 178.655 61.5819C180.662 61.5819 182.329 61.115 183.655 60.1725C184.982 59.2387 185.929 57.9645 186.483 56.3587H182.503C182.194 57.0525 181.7 57.563 181.033 57.899C180.365 58.235 179.58 58.4009 178.694 58.4009C177.154 58.4009 175.967 57.9165 175.129 56.9434C174.496 56.206 174.103 55.2198 173.951 53.9849H186.819C186.867 53.7187 186.902 53.4481 186.924 53.182C186.941 52.9158 186.954 52.6234 186.954 52.3092C186.954 50.6162 186.61 49.1325 185.92 47.8627L185.916 47.8671ZM174.016 51.0482C174.195 50.0052 174.562 49.1543 175.125 48.5042C175.962 47.5223 177.093 47.0336 178.519 47.0336C179.833 47.0336 180.863 47.4307 181.596 48.238C182.207 48.9013 182.564 49.8351 182.665 51.0482H174.021H174.016Z" fill="white"/>
<path d="M196.38 61.5819C194.015 61.5819 192.13 61.0845 190.724 60.0939C189.319 59.1034 188.551 57.7245 188.416 55.9616H192.265C192.378 56.83 192.788 57.4889 193.504 57.934C194.22 58.379 195.175 58.6016 196.38 58.6016C197.471 58.6016 198.291 58.4314 198.836 58.0823C199.382 57.7376 199.657 57.2401 199.657 56.5943C199.657 56.1274 199.5 55.7434 199.19 55.4423C198.876 55.1412 198.287 54.8925 197.418 54.6918L194.674 54.0547C192.802 53.6532 191.414 53.0249 190.511 52.1652C189.607 51.3056 189.158 50.2322 189.158 48.9362C189.158 47.3522 189.764 46.1085 190.982 45.2053C192.195 44.302 193.875 43.8525 196.018 43.8525C198.16 43.8525 199.836 44.3064 201.119 45.2053C202.401 46.1085 203.108 47.3522 203.244 48.9362H199.395C199.281 48.2467 198.932 47.7231 198.343 47.3653C197.754 47.0074 196.943 46.8285 195.917 46.8285C194.957 46.8285 194.233 46.9813 193.744 47.2823C193.251 47.5834 193.007 48.0242 193.007 48.6045C193.007 49.0496 193.194 49.4249 193.574 49.726C193.954 50.0271 194.586 50.2889 195.481 50.5114L198.426 51.1791C200.097 51.5587 201.363 52.2176 202.223 53.1514C203.082 54.0896 203.51 55.1936 203.51 56.4634C203.51 58.091 202.886 59.3521 201.638 60.2423C200.39 61.1368 198.64 61.5819 196.388 61.5819H196.38Z" fill="white"/>
<path d="M212.87 61.5819C210.505 61.5819 208.62 61.0845 207.215 60.0939C205.809 59.1034 205.041 57.7245 204.906 55.9616H208.755C208.868 56.83 209.279 57.4889 209.994 57.934C210.71 58.379 211.665 58.6016 212.87 58.6016C213.961 58.6016 214.781 58.4314 215.327 58.0823C215.872 57.7376 216.147 57.2401 216.147 56.5943C216.147 56.1274 215.99 55.7434 215.68 55.4423C215.366 55.1412 214.777 54.8925 213.908 54.6918L211.164 54.0547C209.292 53.6532 207.904 53.0249 207.001 52.1652C206.097 51.3056 205.648 50.2322 205.648 48.9362C205.648 47.3522 206.255 46.1085 207.472 45.2053C208.685 44.302 210.365 43.8525 212.508 43.8525C214.65 43.8525 216.326 44.3064 217.609 45.2053C218.892 46.1085 219.598 47.3522 219.734 48.9362H215.885C215.772 48.2467 215.423 47.7231 214.833 47.3653C214.244 47.0074 213.433 46.8285 212.407 46.8285C211.447 46.8285 210.723 46.9813 210.234 47.2823C209.741 47.5834 209.497 48.0242 209.497 48.6045C209.497 49.0496 209.684 49.4249 210.064 49.726C210.444 50.0271 211.076 50.2889 211.971 50.5114L214.916 51.1791C216.588 51.5587 217.853 52.2176 218.713 53.1514C219.572 54.0896 220 55.1936 220 56.4634C220 58.091 219.376 59.3521 218.128 60.2423C216.88 61.1368 215.13 61.5819 212.879 61.5819H212.87Z" fill="white"/>
<path d="M102.998 77.4173V86.8121C101.728 88.1081 100.258 89.0899 98.5866 89.7576C96.9153 90.4252 94.9473 90.7612 92.7001 90.7612C90.1561 90.7612 87.9612 90.255 86.1066 89.2383C84.2565 88.2216 82.8295 86.7947 81.8259 84.9532C80.8223 83.1118 80.3205 80.9562 80.3205 78.482C80.3205 76.0078 80.8223 73.8391 81.8259 71.9758C82.8295 70.1125 84.2259 68.6551 86.0063 67.5947C87.7866 66.5387 89.8637 66.0107 92.2288 66.0107C94.1444 66.0107 95.8681 66.3642 97.3953 67.0624C98.9226 67.7649 100.157 68.7293 101.109 69.938C102.056 71.1555 102.632 72.5693 102.828 74.1707H98.4775C98.2593 72.7482 97.5873 71.618 96.4702 70.7933C95.3575 69.9686 93.9611 69.5584 92.2899 69.5584C90.7713 69.5584 89.4448 69.9118 88.3103 70.6275C87.1757 71.3431 86.2899 72.3554 85.6703 73.6733C85.0463 74.9867 84.7364 76.562 84.7364 78.3903C84.7364 80.2187 85.055 81.8638 85.6877 83.1903C86.3204 84.5169 87.2499 85.5249 88.463 86.2187C89.6804 86.9125 91.1684 87.2572 92.9313 87.2572C94.2884 87.2572 95.4579 87.0827 96.4441 86.738C97.3386 86.4194 98.076 85.9656 98.6477 85.3591V80.834H92.8964V77.426H102.994L102.998 77.4173Z" fill="white"/>
<path d="M116.578 73.5029V77.4826C116.464 77.4346 116.307 77.4128 116.111 77.3997C115.91 77.3866 115.661 77.3822 115.373 77.3822C113.746 77.3822 112.528 77.74 111.73 78.4469C110.927 79.1626 110.525 80.2971 110.525 81.8593V90.7567H106.31V73.6993H110.429V76.8368C110.835 75.8549 111.402 75.0782 112.131 74.5022C113.096 73.7473 114.243 73.3677 115.578 73.3677C116.045 73.3677 116.381 73.4157 116.582 73.4986L116.578 73.5029Z" fill="white"/>
<path d="M126.85 90.7621C125.043 90.7621 123.455 90.3825 122.085 89.6232C120.714 88.8639 119.65 87.8123 118.89 86.4639C118.131 85.1156 117.752 83.5709 117.752 81.8298C117.752 80.0887 118.131 78.5614 118.89 77.248C119.65 75.9345 120.714 74.9003 122.085 74.1542C123.455 73.408 125.043 73.0327 126.85 73.0327C128.656 73.0327 130.271 73.408 131.632 74.1542C132.994 74.9003 134.05 75.9345 134.809 77.248C135.568 78.5658 135.948 80.0931 135.948 81.8298C135.948 83.5665 135.564 85.1156 134.796 86.4639C134.028 87.8123 132.963 88.8683 131.602 89.6232C130.24 90.3825 128.656 90.7621 126.85 90.7621ZM126.85 87.3847C127.74 87.3847 128.543 87.1578 129.258 86.6996C129.974 86.2414 130.528 85.5956 130.93 84.7578C131.331 83.92 131.532 82.9338 131.532 81.7992C131.532 80.128 131.091 78.8101 130.21 77.8502C129.328 76.8902 128.207 76.4102 126.85 76.4102C125.493 76.4102 124.362 76.8902 123.472 77.8502C122.582 78.8101 122.133 80.1236 122.133 81.7992C122.133 82.9381 122.338 83.9243 122.752 84.7578C123.162 85.5956 123.721 86.2414 124.424 86.6996C125.126 87.1578 125.933 87.3847 126.85 87.3847Z" fill="white"/>
<path d="M141.804 90.762L136.585 73.7046H141.001L144.077 86.5162H143.776L147.555 73.7046H151.404L155.253 86.5162H154.917L157.962 73.7046H162.278L157.059 90.762H153.114L149.266 78.0857H149.602L145.753 90.762H141.804Z" fill="white"/>
<path d="M179.2 77.0512C178.511 75.777 177.542 74.7908 176.29 74.0883C175.042 73.3901 173.567 73.0366 171.878 73.0366C170.089 73.0366 168.531 73.4119 167.196 74.1581C165.856 74.9086 164.813 75.9384 164.063 77.265C163.321 78.5959 162.946 80.1275 162.946 81.8642C162.946 83.6009 163.321 85.1413 164.063 86.4766C164.813 87.8162 165.86 88.8635 167.213 89.6271C168.557 90.382 170.137 90.766 171.943 90.766C173.951 90.766 175.618 90.2991 176.944 89.3566C178.271 88.4228 179.218 87.1486 179.772 85.5428H175.792C175.478 86.2366 174.989 86.7471 174.322 87.0831C173.654 87.4191 172.873 87.5849 171.978 87.5849C170.438 87.5849 169.251 87.1006 168.413 86.1275C167.78 85.39 167.388 84.4039 167.235 83.169H180.103C180.151 82.9028 180.186 82.6322 180.208 82.366C180.23 82.0999 180.243 81.8075 180.243 81.4933C180.243 79.8002 179.898 78.3166 179.204 77.0468L179.2 77.0512ZM167.305 80.2279C167.484 79.185 167.855 78.3341 168.413 77.6839C169.251 76.7021 170.386 76.2133 171.808 76.2133C173.122 76.2133 174.151 76.6104 174.889 77.4177C175.495 78.081 175.853 79.0148 175.949 80.2279H167.305Z" fill="white"/>
<path d="M193.312 73.5029V77.4826C193.203 77.4346 193.046 77.4128 192.845 77.3997C192.644 77.3866 192.4 77.3822 192.112 77.3822C190.48 77.3822 189.267 77.74 188.46 78.4469C187.657 79.1626 187.26 80.2971 187.26 81.8593V90.7567H183.044V73.6993H187.155V76.8368C187.565 75.8549 188.137 75.0782 188.861 74.5022C189.817 73.7473 190.964 73.3677 192.304 73.3677C192.775 73.3677 193.111 73.4157 193.308 73.4986L193.312 73.5029Z" fill="white"/>
<path d="M201.978 90.7621C199.613 90.7621 197.728 90.2647 196.323 89.2741C194.918 88.2836 194.15 86.9047 194.015 85.1418H197.863C197.977 86.0101 198.387 86.669 199.103 87.1141C199.818 87.5592 200.774 87.7818 201.978 87.7818C203.069 87.7818 203.889 87.6116 204.435 87.2625C204.98 86.9178 205.255 86.4203 205.255 85.7745C205.255 85.3076 205.098 84.9236 204.788 84.6225C204.474 84.3214 203.885 84.0727 203.017 83.872L200.272 83.2349C198.4 82.8334 197.012 82.205 196.109 81.3454C195.206 80.4858 194.756 79.4123 194.756 78.1163C194.756 76.5323 195.363 75.2887 196.58 74.3854C197.793 73.4822 199.473 73.0327 201.616 73.0327C203.759 73.0327 205.434 73.4865 206.717 74.3854C208 75.2887 208.707 76.5323 208.842 78.1163H204.993C204.88 77.4269 204.531 76.9032 203.942 76.5454C203.353 76.1876 202.541 76.0087 201.516 76.0087C200.556 76.0087 199.831 76.1614 199.343 76.4625C198.849 76.7636 198.605 77.2043 198.605 77.7847C198.605 78.2298 198.793 78.6051 199.172 78.9061C199.552 79.2072 200.185 79.4691 201.079 79.6916L204.025 80.3592C205.696 80.7389 206.961 81.3978 207.821 82.3316C208.681 83.2698 209.108 84.3738 209.108 85.6436C209.108 87.2712 208.484 88.5323 207.236 89.4225C205.988 90.317 204.239 90.7621 201.987 90.7621H201.978Z" fill="white"/>
</svg>
