<svg width="24" height="24" viewBox="0 0 24 24" fill="none" xmlns="http://www.w3.org/2000/svg">
<path d="M24.0004 24.0001V15.21C24.0004 10.8899 23.0704 7.58984 18.0303 7.58984C15.6003 7.58984 13.9802 8.90986 13.3202 10.1699H13.2602V7.97985H8.49014V24.0001H13.4702V16.05C13.4702 13.9499 13.8602 11.9399 16.4403 11.9399C18.9903 11.9399 19.0203 14.3099 19.0203 16.17V23.9701H24.0004V24.0001Z" fill="white"/>
<path d="M0.390015 7.97949H5.37009V23.9997H0.390015V7.97949Z" fill="white"/>
<path d="M2.88004 0C1.29002 0 0 1.29002 0 2.88004C0 4.47007 1.29002 5.79009 2.88004 5.79009C4.47007 5.79009 5.76009 4.47007 5.76009 2.88004C5.76009 1.29002 4.47007 0 2.88004 0Z" fill="white"/>
</svg>
