<svg width="100" height="100" viewBox="0 0 100 100" fill="none" xmlns="http://www.w3.org/2000/svg">
<path d="M79.2777 51.3379H77.2617C76.4265 51.3379 75.7496 50.661 75.7496 49.8258C75.7496 48.9907 76.4265 48.3137 77.2617 48.3137H79.2779C80.113 48.3137 80.79 48.9907 80.79 49.8258C80.79 50.661 80.1128 51.3379 79.2777 51.3379ZM84.3177 51.3371C83.491 51.3371 82.816 50.6719 82.806 49.8428C82.7962 49.0078 83.465 48.3229 84.3001 48.3129C84.8865 48.3061 85.4736 48.2487 86.0455 48.1426C86.8669 47.9895 87.6556 48.5323 87.808 49.3535C87.9603 50.1746 87.4183 50.9637 86.597 51.116C85.8554 51.2537 85.0945 51.328 84.3357 51.3369C84.3298 51.3371 84.3238 51.3371 84.3177 51.3371ZM90.9265 49.191C90.4531 49.191 89.9869 48.9694 89.6919 48.5537C89.2087 47.8727 89.3691 46.9287 90.0501 46.4455C90.5259 46.1078 90.9763 45.7264 91.3884 45.3115C91.9771 44.719 92.9343 44.7158 93.5269 45.3045C94.1193 45.893 94.1226 46.8504 93.5339 47.443C93.0002 47.9803 92.4167 48.4746 91.8001 48.9121C91.5347 49.1006 91.2292 49.191 90.9265 49.191ZM95.147 43.6735C94.9742 43.6735 94.7984 43.6436 94.6267 43.5807C93.8425 43.2932 93.44 42.4246 93.7273 41.6405C93.9279 41.0934 94.0818 40.5248 94.1849 39.9506C94.3328 39.1287 95.1195 38.5823 95.9406 38.7297C96.7625 38.8774 97.3091 39.6633 97.1615 40.4854C97.0275 41.2315 96.8273 41.9703 96.5667 42.6813C96.3425 43.2938 95.7634 43.6735 95.147 43.6735ZM95.4914 36.7336C94.8173 36.7336 94.2029 36.2795 94.0277 35.5965C93.8828 35.0317 93.6875 34.4756 93.4472 33.9438C93.1031 33.1828 93.4412 32.2871 94.2021 31.943C94.9632 31.5989 95.8589 31.9369 96.2029 32.6979C96.5152 33.3889 96.7691 34.1114 96.9572 34.8455C97.1644 35.6545 96.6767 36.4783 95.8679 36.6858C95.7421 36.7182 95.6156 36.7336 95.4914 36.7336ZM91.8382 30.8221C91.4861 30.8221 91.1326 30.6998 90.846 30.4506C90.4052 30.067 89.9287 29.7192 89.4296 29.4172C88.7152 28.9848 88.4865 28.0551 88.9189 27.3406C89.3513 26.6262 90.2814 26.3975 90.9955 26.8299C91.6425 27.2215 92.2601 27.6723 92.8314 28.1694C93.4613 28.7176 93.5275 29.6727 92.9792 30.3026C92.6804 30.6461 92.2603 30.8221 91.8382 30.8221ZM85.4806 28.0283C85.425 28.0283 85.3687 28.0252 85.3123 28.0192C84.9384 27.9778 84.5566 27.9567 84.1773 27.9565H83.466C82.6308 27.9565 81.9539 27.2795 81.9539 26.4444C81.9539 25.6092 82.6308 24.9323 83.466 24.9323H84.1777C84.6681 24.9323 85.1619 24.9596 85.6457 25.0133C86.4755 25.1053 87.074 25.8526 86.982 26.6826C86.8958 27.4561 86.241 28.0283 85.4806 28.0283ZM78.4253 27.9565H76.4091C75.574 27.9565 74.897 27.2795 74.897 26.4444C74.897 25.6092 75.574 24.9323 76.4091 24.9323H78.4253C79.2605 24.9323 79.9375 25.6092 79.9375 26.4444C79.9375 27.2795 79.2605 27.9565 78.4253 27.9565ZM71.3689 27.9565H69.3527C68.5175 27.9565 67.8406 27.2795 67.8406 26.4444C67.8406 25.6092 68.5175 24.9323 69.3527 24.9323H71.3689C72.2041 24.9323 72.881 25.6092 72.881 26.4444C72.881 27.2795 72.2041 27.9565 71.3689 27.9565Z" fill="#FF656B"/>
<path d="M37.7488 79.6452H35.7326C34.8974 79.6452 34.2205 78.9683 34.2205 78.1331C34.2205 77.2979 34.8974 76.621 35.7326 76.621H37.7488C38.584 76.621 39.2609 77.2979 39.2609 78.1331C39.2609 78.9683 38.584 79.6452 37.7488 79.6452ZM30.6924 79.6452H28.6761C27.841 79.6452 27.164 78.9683 27.164 78.1331C27.164 77.2979 27.841 76.621 28.6761 76.621H30.6924C31.5275 76.621 32.2045 77.2979 32.2045 78.1331C32.2045 78.9683 31.5275 79.6452 30.6924 79.6452ZM23.6359 79.6452H21.6197C20.7845 79.6452 20.1076 78.9683 20.1076 78.1331C20.1076 77.2979 20.7845 76.621 21.6197 76.621H23.6359C24.4711 76.621 25.148 77.2979 25.148 78.1331C25.148 78.9683 24.4711 79.6452 23.6359 79.6452ZM16.5795 79.6452H16.0084C15.4652 79.6452 14.9181 79.6118 14.3826 79.5458C13.5537 79.4436 12.9646 78.689 13.0668 77.8602C13.1689 77.0315 13.923 76.4425 14.7525 76.5444C15.166 76.5954 15.5885 76.6212 16.0086 76.6212H16.5797C17.4148 76.6212 18.0918 77.2981 18.0918 78.1333C18.0918 78.9685 17.4146 79.6452 16.5795 79.6452ZM9.85173 77.8927C9.57908 77.8927 9.3033 77.819 9.05466 77.6645C8.41267 77.2653 7.80037 76.8073 7.23513 76.3034C6.61169 75.7478 6.55681 74.7919 7.11248 74.1685C7.66814 73.545 8.62419 73.4903 9.24744 74.0458C9.68376 74.4349 10.1562 74.7882 10.6515 75.0964C11.3607 75.5374 11.5781 76.4698 11.1371 77.179C10.851 77.6396 10.3572 77.8927 9.85173 77.8927ZM5.30408 72.6403C4.72146 72.6403 4.16638 72.3019 3.91794 71.7339C3.61404 71.0394 3.36912 70.3138 3.18982 69.5776C2.99216 68.7661 3.48982 67.9483 4.30115 67.7507C5.11247 67.553 5.93064 68.0507 6.1281 68.862C6.26619 69.4286 6.45466 69.9872 6.68865 70.522C7.02341 71.287 6.67439 72.1786 5.90935 72.5134C5.71208 72.5995 5.50642 72.6403 5.30408 72.6403ZM4.53962 65.7335C4.4449 65.7335 4.349 65.7245 4.25251 65.706C3.4324 65.5483 2.89529 64.7558 3.0529 63.9356C3.19607 63.1913 3.40505 62.455 3.67419 61.7472C3.97107 60.9665 4.8447 60.5747 5.62497 60.8714C6.40544 61.1683 6.79763 62.0417 6.50076 62.8222C6.29373 63.3669 6.13279 63.9335 6.02263 64.5065C5.88376 65.2302 5.25017 65.7335 4.53962 65.7335ZM7.82419 59.613C7.43279 59.613 7.04177 59.462 6.74568 59.1608C6.16013 58.5653 6.16853 57.6079 6.76404 57.0226C7.30408 56.4917 7.89333 56.0044 8.5154 55.5741C9.20251 55.0989 10.1441 55.271 10.6191 55.9577C11.0941 56.6446 10.9224 57.5864 10.2355 58.0614C9.75544 58.3935 9.30076 58.7694 8.88376 59.1792C8.58962 59.4686 8.20681 59.613 7.82419 59.613ZM14.0009 56.4356C13.2789 56.4356 12.6402 55.9169 12.5129 55.1813C12.3705 54.3585 12.922 53.5759 13.7449 53.4335C14.4875 53.305 15.2492 53.2397 16.0084 53.2397C16.8435 53.2397 17.5205 53.9167 17.5205 54.7519C17.5205 55.587 16.8435 56.264 16.0084 56.264C15.4215 56.264 14.8334 56.3144 14.2607 56.4134C14.1734 56.4282 14.0867 56.4356 14.0009 56.4356Z" fill="#FF656B"/>
<path d="M46.8706 93.519H57.8649C57.8649 96.4907 55.4579 98.8999 52.4886 98.8999H52.247C49.2776 98.8999 46.8706 96.4907 46.8706 93.519Z" fill="#8C808A"/>
<path d="M63.2602 83.0592H41.4753V88.119C41.4753 91.1012 43.8909 93.5188 46.8706 93.5188H57.8649C60.8448 93.5188 63.2602 91.1012 63.2602 88.119V83.0592Z" fill="#B2B2B2"/>
<path d="M54.6951 31.4814V23.2592L47.9748 22.3045C47.4551 20.1779 46.6174 18.1764 45.5121 16.3549L49.0648 11.6229C49.366 11.2217 49.3264 10.66 48.9719 10.3051L44.3998 5.7291C44.0447 5.37383 43.4822 5.33398 43.0809 5.63594L38.3541 9.19063C36.534 8.08457 34.5342 7.2459 32.4094 6.72598L31.5783 0.866602C31.5076 0.369336 31.0822 0 30.5801 0H24.115C23.6129 0 23.1875 0.369336 23.117 0.866602L22.2859 6.72598C20.1611 7.24609 18.1613 8.08457 16.3412 9.19063L11.6145 5.63594C11.2129 5.33398 10.6506 5.37383 10.2955 5.7291L5.72324 10.3051C5.36856 10.66 5.32891 11.2217 5.63027 11.6229L9.18301 16.3549C8.07793 18.1764 7.24004 20.1779 6.72031 22.3045L0.866211 23.1361C0.369336 23.2068 0 23.6322 0 24.1342V30.6064C0 31.1084 0.369336 31.534 0.866211 31.6045L6.72031 32.4361C7.23984 34.5627 8.07773 36.5643 9.18301 38.3857L5.63027 43.1178C5.3291 43.5189 5.36875 44.0807 5.72324 44.4355L10.2953 49.0115C10.6504 49.3668 11.2129 49.4066 11.6143 49.1047L16.341 45.55C18.1611 46.6561 20.1609 47.4945 22.2857 48.0146L23.1168 53.874C23.1873 54.3711 23.6129 54.7404 24.1148 54.7404H31.4551L32.409 48.0146C34.5336 47.4945 36.5336 46.6561 38.3537 45.55L43.7805 49.6311L49.5897 43.817L45.5121 38.3857C46.6174 36.5643 47.4551 34.5627 47.9748 32.4361L54.6951 31.4814ZM27.4711 36.8531C21.6938 36.8531 17.0104 32.1658 17.0104 26.3836C17.0104 20.6014 21.6938 15.9141 27.4711 15.9141C33.2484 15.9141 37.9318 20.6014 37.9318 26.3836C37.9318 32.1658 33.2484 36.8531 27.4711 36.8531Z" fill="white"/>
<path d="M54.6952 31.4814V23.2592L47.9748 22.3045C47.7354 21.3244 47.4252 20.3722 47.0555 19.4506C43.584 20.0963 40.3301 21.3617 37.4141 23.1301C37.7487 24.1545 37.9319 25.2474 37.9319 26.3836C37.9319 32.1656 33.2485 36.8531 27.4711 36.8531C26.8705 36.8531 26.2827 36.7996 25.7096 36.7023C24.2678 40.142 23.4702 43.9189 23.4702 47.8828C23.4702 50.2459 23.7545 52.5422 24.2889 54.7406H31.4553L32.4092 48.0146C34.5338 47.4945 36.5338 46.656 38.3539 45.55L43.7807 49.631L49.5899 43.817L45.5123 38.3857C46.6176 36.5642 47.4553 34.5627 47.975 32.4361L54.6952 31.4814Z" fill="#F1F1F1"/>
<path d="M99.9999 83.5533V79.7986C99.9999 79.2967 99.6306 78.8713 99.1337 78.8006L95.5009 78.2844C95.1531 76.8607 94.5921 75.5207 93.8523 74.3011L96.0572 71.3642C96.3583 70.9631 96.3187 70.4013 95.964 70.0465L93.3119 67.3922C92.9568 67.0369 92.3943 66.997 91.9929 67.299L89.0597 69.5049C87.8412 68.7644 86.5023 68.2029 85.0798 67.8549L84.564 64.2185C84.4935 63.7215 84.0679 63.3519 83.566 63.3519H79.8164C79.3144 63.3519 78.8888 63.7215 78.8183 64.2185L78.3025 67.8549C76.88 68.2031 75.5412 68.7644 74.3226 69.5049L71.3894 67.299C70.988 66.997 70.4255 67.0369 70.0705 67.3922L67.4183 70.0465C67.0636 70.4013 67.024 70.9631 67.3253 71.3642L69.5302 74.3011C68.7904 75.5207 68.2294 76.8607 67.8816 78.2844L64.2488 78.8006C63.7517 78.8713 63.3826 79.2967 63.3826 79.7986V83.5533C63.3826 84.0552 63.7519 84.4808 64.2488 84.5513L67.8816 85.0674C68.2294 86.491 68.7904 87.831 69.5302 89.0506L67.3253 91.9875C67.0242 92.3886 67.0638 92.9504 67.4183 93.3052L70.0705 95.9595C70.4255 96.3148 70.988 96.3547 71.3894 96.0527L74.3226 93.8468C75.5412 94.5873 76.88 95.1488 78.3025 95.4968L78.8183 99.1332C78.8888 99.6302 79.3144 99.9996 79.8164 99.9996H83.5662C84.0683 99.9996 84.4937 99.6301 84.5642 99.1332L85.08 95.4968C86.5025 95.1486 87.8414 94.5873 89.0599 93.8468L91.9931 96.0527C92.3945 96.3547 92.957 96.3148 93.3121 95.9595L95.9642 93.3052C96.3187 92.9504 96.3585 92.3886 96.0572 91.9875L93.8523 89.0506C94.5921 87.831 95.1531 86.4912 95.5009 85.0674L99.1337 84.5513C99.6306 84.4808 99.9999 84.0552 99.9999 83.5533ZM81.6912 89.0418C77.6265 89.0418 74.3316 85.7441 74.3316 81.6761C74.3316 77.6082 77.6267 74.3105 81.6912 74.3105C85.7556 74.3105 89.0507 77.6082 89.0507 81.6761C89.0507 85.7439 85.7558 89.0418 81.6912 89.0418Z" fill="white"/>
<path d="M95.0249 72.7392L96.0569 71.3646C96.3581 70.9634 96.3184 70.4017 95.964 70.0468L93.3118 67.3925C92.9567 67.0372 92.3942 66.9974 91.9929 67.2993L90.6208 68.3312L95.0249 72.7392Z" fill="#F1F1F1"/>
<path d="M85.0798 67.855L84.564 64.2186C84.4935 63.7216 84.0679 63.3521 83.566 63.3521H80.8121L81.3279 66.9884C81.3984 67.4854 81.824 67.8548 82.3259 67.8548H85.0798V67.855Z" fill="#F1F1F1"/>
<path d="M90.621 95.0212L91.9929 96.0528C92.3943 96.3548 92.9568 96.3149 93.3118 95.9596L95.964 93.3053C96.3185 92.9505 96.3583 92.3887 96.057 91.9876L95.0259 90.6141L90.621 95.0212Z" fill="#F1F1F1"/>
<path d="M96.3708 78.4082V84.9439L99.1335 84.5514C99.6304 84.4809 99.9998 84.0553 99.9998 83.5533V79.7986C99.9998 79.2967 99.6304 78.8713 99.1335 78.8006L96.3708 78.4082Z" fill="#F1F1F1"/>
<path d="M81.3281 96.3637L80.8123 100H83.5662C84.0683 100 84.4937 99.6305 84.5642 99.1336L85.08 95.4973H82.3261C81.824 95.4971 81.3984 95.8666 81.3281 96.3637Z" fill="#F1F1F1"/>
<path d="M77.3251 48.0544C77.3251 34.2593 66.1513 23.0763 52.3677 23.0763C38.5841 23.0763 27.4103 34.2595 27.4103 48.0544C27.4103 55.17 30.3831 61.5908 35.1536 66.1402H35.1534C35.1534 66.1402 39.5511 70.5363 40.8128 74.9599C41.4845 77.3146 41.4749 83.0591 41.4749 83.0591H52.3673H63.2599C63.2599 83.0591 63.2503 77.3146 63.922 74.9599C65.1837 70.5363 69.5814 66.1402 69.5814 66.1402C74.3523 61.5908 77.3251 55.17 77.3251 48.0544Z" fill="#FFDC00"/>
<path d="M54.2359 93.519C54.2359 95.8983 52.6923 97.9155 50.5533 98.6259C51.0861 98.8028 51.655 98.8999 52.247 98.8999H52.4886C55.458 98.8999 57.865 96.4907 57.865 93.519H54.2359Z" fill="#7B7179"/>
<path d="M59.6312 83.0592V88.1192C59.6312 91.1014 57.2155 93.519 54.2358 93.519H57.8649C60.8448 93.519 63.2603 91.1014 63.2603 88.1192V83.0592H59.6312Z" fill="#A0A0A0"/>
<path d="M77.3252 48.0544C77.3252 34.2593 66.1513 23.0763 52.3677 23.0763C51.7574 23.0763 51.1525 23.0993 50.5533 23.1425C63.4896 24.073 73.6963 34.8702 73.6963 48.0546C73.6963 55.1702 70.7232 61.5909 65.9527 66.1404C61.1822 70.6898 61.555 70.5364 60.2933 74.9601C59.6216 77.3148 59.6312 83.0593 59.6312 83.0593H63.2603C63.2603 83.0593 63.2507 77.3148 63.9224 74.9601C65.1841 70.5364 69.5818 66.1404 69.5818 66.1404C74.3523 61.5907 77.3252 55.17 77.3252 48.0544Z" fill="#FFBF00"/>
<path d="M65.6236 60.0219C65.9928 58.7051 65.8531 57.3294 65.2406 56.2475C64.3103 54.6042 62.0275 53.3235 58.6558 55.1219C56.9308 56.0421 55.7318 58.1612 54.9906 61.6007C54.9406 61.8319 54.8928 62.0696 54.8471 62.3135C53.8156 62.3995 52.9262 62.4247 52.3658 62.4292C51.8127 62.4298 50.9187 62.3995 49.8883 62.3135C49.8424 62.0696 49.7945 61.8319 49.7447 61.6005C49.0033 58.1612 47.8045 56.0419 46.0795 55.1218C42.7076 53.3233 40.4248 54.604 39.4947 56.2473C38.8822 57.3294 38.7428 58.705 39.1117 60.0218C39.4986 61.402 40.3973 62.5733 41.6422 63.3198C43.1549 64.227 45.2832 64.7485 47.2457 65.0483C47.4373 66.6546 47.5725 68.6128 47.6152 70.9979C47.7201 76.8337 47.2062 82.4241 47.1455 83.0591H50.183C50.3105 81.6604 50.7371 76.4969 50.6393 70.969C50.6029 68.9169 50.4973 67.0483 50.3236 65.3772C51.4754 65.4522 52.2687 65.4538 52.365 65.4536C52.4627 65.4536 53.2574 65.4524 54.4111 65.3772C54.2375 67.0483 54.1318 68.9171 54.0955 70.9692C53.9978 76.4973 54.4242 81.6606 54.5517 83.0593H57.5892C57.5287 82.4261 57.016 76.8571 57.1191 71.0225C57.1615 68.626 57.2969 66.6602 57.4892 65.0483C59.4521 64.7485 61.5799 64.227 63.0928 63.32C64.3381 62.5733 65.2367 61.402 65.6236 60.0219ZM43.1976 60.7262C41.9197 59.9598 41.7125 58.4686 42.1267 57.737C42.3201 57.3954 42.6463 57.2757 43.0092 57.2757C43.601 57.2757 44.2898 57.5946 44.6564 57.7901C45.0498 57.9999 45.9914 58.8143 46.7105 61.8905C45.366 61.6317 44.0848 61.2583 43.1976 60.7262ZM61.5379 60.7262C60.651 61.2581 59.3697 61.6317 58.025 61.8905C58.7441 58.8149 59.6857 58.0001 60.0793 57.7903C60.4459 57.5948 61.1346 57.2759 61.7266 57.2759C62.0893 57.2759 62.4156 57.3958 62.609 57.7372C63.023 58.4688 62.8158 59.96 61.5379 60.7262Z" fill="#FF9A00"/>
</svg>
