<svg width="20" height="20" viewBox="0 0 20 20" fill="none" xmlns="http://www.w3.org/2000/svg">
<path d="M12.4183 3.48994C11.9422 3.402 11.505 3.70579 11.4144 4.17047C11.3238 4.63515 11.6285 5.08884 12.0916 5.17978C13.4859 5.45159 14.5624 6.53085 14.8353 7.92989V7.93089C14.913 8.33361 15.2675 8.62641 15.6759 8.62641C15.7306 8.62641 15.7854 8.62141 15.8412 8.61142C16.3043 8.51849 16.609 8.0658 16.5184 7.60012C16.1111 5.51055 14.5027 3.89666 12.4183 3.48994Z" fill="white"/>
<path d="M12.356 0.00792976C12.1329 -0.0240483 11.9088 0.0419064 11.7305 0.183809C11.5473 0.32771 11.4328 0.535567 11.4079 0.768408C11.3551 1.23908 11.6947 1.66479 12.1648 1.71776C15.4064 2.07951 17.926 4.60477 18.2905 7.85654C18.3393 8.29224 18.7048 8.62101 19.141 8.62101C19.1739 8.62101 19.2058 8.61902 19.2386 8.61502C19.4667 8.59004 19.6699 8.47711 19.8133 8.29724C19.9557 8.11736 20.0204 7.89351 19.9945 7.66467C19.5404 3.60746 16.4003 0.45862 12.356 0.00792976Z" fill="white"/>
<path fill-rule="evenodd" clip-rule="evenodd" d="M9.03174 10.9724C13.0208 14.9604 13.9258 10.3467 16.4656 12.8848C18.9143 15.3328 20.3216 15.8232 17.2192 18.9247C16.8306 19.237 14.3616 22.9943 5.6846 14.3197C-2.99348 5.644 0.761585 3.17244 1.07397 2.78395C4.18387 -0.326154 4.66586 1.08938 7.11449 3.53733C9.65436 6.0765 5.04266 6.98441 9.03174 10.9724Z" fill="white"/>
</svg>
