<svg width="145" height="64" viewBox="0 0 145 64" fill="none" xmlns="http://www.w3.org/2000/svg">
<path d="M11.2119 31.7353C7.34014 31.7353 3.79929 29.7894 1.73434 26.5332C-1.56824 21.3179 -0.0129149 14.3884 5.19908 11.0858C6.99267 9.95077 9.0543 9.35181 11.1689 9.35181C11.47 9.35181 11.7745 9.36505 12.0723 9.38821L13.075 9.47094L7.30704 0.364012C8.57116 0.12244 9.86175 0 11.1523 0C11.245 0 11.3377 0 11.4303 0L20.6498 14.5539C22.5492 17.552 22.9166 21.1822 21.6558 24.5113C20.7954 26.7946 19.2466 28.6941 17.185 30.0012C15.3947 31.1363 13.3298 31.7353 11.2152 31.7353H11.2119ZM11.1854 13.0217C9.76247 13.0217 8.37261 13.4254 7.16806 14.1899C3.66692 16.4103 2.62452 21.0631 4.84169 24.5642C6.22824 26.7549 8.60756 28.062 11.202 28.062C12.6216 28.062 14.0115 27.6583 15.216 26.8939C16.9137 25.8184 18.0884 24.1473 18.5286 22.1882C18.9687 20.2292 18.6179 18.2139 17.5457 16.5162C16.1592 14.3289 13.7832 13.0217 11.1887 13.0217H11.1854Z" fill="#3580F6"/>
<path d="M37.5565 31.7353C35.4419 31.7353 33.3769 31.1363 31.5867 30.0012C29.5217 28.6941 27.973 26.7946 27.1126 24.5113C25.8551 21.1789 26.2224 17.5487 28.1219 14.5539L37.3414 0C37.434 0 37.5267 0 37.6193 0C38.9066 0 40.1972 0.12244 41.4613 0.364012L35.6934 9.47094L36.6961 9.39152C36.9972 9.36835 37.3017 9.35512 37.6028 9.35512C39.7174 9.35512 41.779 9.95408 43.5726 11.0891C48.7879 14.3917 50.3432 21.3212 47.0406 26.5398C44.9757 29.7961 41.4348 31.7419 37.5631 31.7419L37.5565 31.7353ZM37.5829 13.0217C34.9885 13.0217 32.6125 14.3288 31.226 16.5162C30.1505 18.2139 29.7997 20.2259 30.2398 22.1882C30.6799 24.1473 31.8547 25.8184 33.5523 26.8939C34.7569 27.6583 36.1467 28.062 37.5697 28.062C40.1641 28.062 42.5434 26.7549 43.9267 24.5642C45.0022 22.8666 45.3529 20.8546 44.9128 18.8955C44.4727 16.9365 43.2979 15.2654 41.6003 14.1899C40.3925 13.4254 39.0026 13.0217 37.5829 13.0217Z" fill="#3580F6"/>
<path d="M24.3726 64C19.068 64 14.0644 61.9946 10.2258 58.3446L12.8268 55.7435C15.9672 58.702 20.0508 60.3235 24.3726 60.3235C27.202 60.3235 30.0049 59.6054 32.4769 58.2486L33.0394 57.9408L30.8454 55.5648C31.9441 54.9791 32.9534 54.2478 33.8601 53.3808L36.9674 56.7495L38.5426 58.3247C37.5135 59.3042 36.3983 60.1646 35.2169 60.9026C31.9672 62.9311 28.2179 64 24.3726 64Z" fill="#3580F6"/>
<path d="M24.3726 54.6449C18.2009 54.6449 13.1809 49.6215 13.1809 43.4498C13.1809 41.6265 13.6044 39.8891 14.445 38.2842C15.1565 36.9208 16.1227 35.7361 17.3174 34.7665C18.4756 33.8234 19.8257 33.1152 21.2487 32.6982C21.6458 34.1047 22.9298 35.1073 24.4454 35.1073C25.961 35.1073 27.2218 34.1212 27.6288 32.7346C32.3312 34.1609 35.5709 38.4927 35.5709 43.4498C35.5709 46.3421 34.469 49.0854 32.4669 51.1801C31.398 52.2953 30.1405 53.1657 28.7308 53.7613C27.3542 54.3471 25.8882 54.6449 24.3759 54.6449H24.3726ZM24.3726 35.928C22.7411 35.928 21.1858 36.4443 19.882 37.4172C18.4491 38.4893 17.4431 40.0314 17.046 41.7655C16.9203 42.3016 16.8574 42.8707 16.8574 43.4498C16.8574 47.5963 20.2295 50.9684 24.3759 50.9684C24.7333 50.9684 25.0973 50.9419 25.4646 50.8922C27.2284 50.6341 28.8466 49.7539 30.028 48.4136C31.2326 47.0436 31.8977 45.2798 31.8977 43.4532C31.8977 39.3067 28.5256 35.9346 24.3792 35.9346L24.3726 35.928Z" fill="white"/>
<path d="M32.232 20.7851C32.232 17.8267 34.6311 15.4275 37.5896 15.4275C40.548 15.4275 42.9472 17.8267 42.9472 20.7851H40.409C40.409 19.2298 39.1449 17.9657 37.5896 17.9657C36.0342 17.9657 34.7701 19.2298 34.7701 20.7851H32.232Z" fill="white"/>
<path d="M37.5929 22.1948C38.3714 22.1948 39.0026 21.5637 39.0026 20.7851C39.0026 20.0065 38.3714 19.3754 37.5929 19.3754C36.8143 19.3754 36.1831 20.0065 36.1831 20.7851C36.1831 21.5637 36.8143 22.1948 37.5929 22.1948Z" fill="#3580F6"/>
<path d="M5.72195 20.7851C5.72195 17.8267 8.12113 15.4275 11.0796 15.4275C14.038 15.4275 16.4372 17.8267 16.4372 20.7851H13.899C13.899 19.2298 12.6349 17.9657 11.0796 17.9657C9.52423 17.9657 8.26011 19.2298 8.26011 20.7851H5.72195Z" fill="white"/>
<path d="M11.0828 22.1948C11.8614 22.1948 12.4926 21.5637 12.4926 20.7851C12.4926 20.0065 11.8614 19.3754 11.0828 19.3754C10.3043 19.3754 9.67311 20.0065 9.67311 20.7851C9.67311 21.5637 10.3043 22.1948 11.0828 22.1948Z" fill="#3580F6"/>
<path d="M66.7892 7.90789C66.0791 6.7263 65.0758 5.80921 63.7849 5.16523C62.4884 4.51838 60.9762 4.19639 59.2455 4.19639H53.0242V20.063H59.2656C60.9819 20.063 62.4826 19.7324 63.7706 19.0711C65.0556 18.4099 66.059 17.4784 66.7806 16.2825C67.4993 15.0865 67.8587 13.6864 67.8587 12.0851C67.8587 10.4838 67.5022 9.09235 66.7863 7.91076L66.7892 7.90789ZM64.2765 15.0175C63.8281 15.8829 63.1783 16.5613 62.3274 17.0415C61.4764 17.5273 60.4472 17.7717 59.2426 17.7717H55.8876V6.48769H59.2426C60.4615 6.48769 61.4908 6.72055 62.3389 7.18341C63.1812 7.6434 63.8281 8.296 64.2765 9.1326C64.725 9.96919 64.9493 10.9409 64.9493 12.042C64.9493 13.1431 64.725 14.1464 64.2765 15.0175Z" fill="white"/>
<path d="M72.9358 5.58497C72.9358 4.81808 72.3141 4.19639 71.5472 4.19639C70.7803 4.19639 70.1586 4.81808 70.1586 5.58497V5.62522C70.1586 6.39211 70.7803 7.01379 71.5472 7.01379C72.3141 7.01379 72.9358 6.39211 72.9358 5.62522V5.58497Z" fill="white"/>
<path d="M72.9473 8.82211H70.1701V20.0601H72.9473V8.82211Z" fill="white"/>
<path d="M80.5255 24.8008C79.042 24.8008 77.8259 24.4788 76.8772 23.832C75.9285 23.1851 75.3679 22.3112 75.1925 21.2101H77.8374C77.9697 21.5924 78.2601 21.8885 78.7085 22.1013C79.157 22.314 79.7406 22.4204 80.4594 22.4204C81.5029 22.4204 82.2734 22.1904 82.7737 21.7275C83.2739 21.2647 83.524 20.5632 83.524 19.6231V17.1996L83.7224 17.2427C83.547 18.0649 83.0985 18.7233 82.3769 19.2149C81.6582 19.7065 80.7756 19.9537 79.732 19.9537C78.6884 19.9537 77.8633 19.718 77.1216 19.2494C76.3799 18.7808 75.802 18.1224 75.3909 17.2772C74.9798 16.432 74.7728 15.4459 74.7728 14.3132C74.7728 13.1805 74.9855 12.1685 75.411 11.3175C75.8365 10.4666 76.4345 9.79958 77.2078 9.32234C77.9783 8.84511 78.8782 8.60649 79.9074 8.60649C80.9366 8.60649 81.8364 8.85948 82.5178 9.36547C83.1991 9.87145 83.6217 10.5729 83.7856 11.4699L83.6103 11.4929V8.82498H86.3213V19.6001C86.3213 21.2014 85.8038 22.4693 84.7688 23.4007C83.7339 24.3322 82.3194 24.8008 80.5255 24.8008ZM80.6376 17.7487C81.5346 17.7487 82.2504 17.4439 82.7851 16.8345C83.3228 16.225 83.5901 15.3683 83.5901 14.2672C83.5901 13.1661 83.317 12.3122 82.7737 11.7114C82.2303 11.1105 81.5087 10.8087 80.6146 10.8087C79.7205 10.8087 79.019 11.1134 78.4757 11.7229C77.9323 12.3324 77.6592 13.1891 77.6592 14.2902C77.6592 15.3913 77.9294 16.2451 78.4757 16.846C79.019 17.4497 79.7378 17.7487 80.6347 17.7487H80.6376Z" fill="white"/>
<path d="M91.821 5.58497C91.821 4.81808 91.1993 4.19639 90.4324 4.19639C89.6655 4.19639 89.0438 4.81808 89.0438 5.58497V5.62522C89.0438 6.39211 89.6655 7.01379 90.4324 7.01379C91.1993 7.01379 91.821 6.39211 91.821 5.62522V5.58497Z" fill="white"/>
<path d="M91.8324 8.82211H89.0553V20.0601H91.8324V8.82211Z" fill="white"/>
<path d="M98.2435 11.0042V16.4262C98.2435 16.9696 98.393 17.3721 98.6834 17.6394C98.9766 17.901 99.4395 18.0333 100.075 18.0333C100.322 18.0333 100.546 18.0132 100.745 17.9787C100.946 17.9413 101.133 17.8924 101.308 17.8349V19.994C101.133 20.086 100.883 20.155 100.561 20.2038C100.239 20.2585 99.8765 20.2843 99.4826 20.2843C98.0998 20.2843 97.0849 19.9566 96.4323 19.304C95.774 18.6514 95.4491 17.6711 95.4491 16.3601V11.007H93.2901V8.82498H95.4491V6.26919L98.2493 5.23135V8.82498H101.311V11.007H98.2493L98.2435 11.0042Z" fill="white"/>
<path d="M112.558 18.8929C112.509 18.5278 112.483 18.1684 112.483 17.8148V12.7234C112.483 11.375 112.089 10.3487 111.293 9.65008C110.499 8.95435 109.332 8.60649 107.785 8.60649C106.239 8.60649 105.123 8.92848 104.241 9.57533C103.358 10.2222 102.858 11.0645 102.74 12.111H105.408C105.494 11.6539 105.736 11.306 106.127 11.0617C106.515 10.823 107.038 10.6994 107.699 10.6994C108.36 10.6994 108.881 10.8489 109.211 11.1508C109.542 11.4498 109.706 11.8954 109.706 12.4847V13.0425L106.707 13.4938C105.345 13.7037 104.284 14.1062 103.533 14.707C102.786 15.3108 102.409 16.1272 102.409 17.1536C102.409 18.1109 102.743 18.8699 103.413 19.4334C104.082 19.9997 104.982 20.2843 106.115 20.2843C107.084 20.2843 107.9 20.0745 108.57 19.6547C109.099 19.3241 109.513 18.8728 109.801 18.2978C109.809 18.5968 109.824 18.8613 109.85 19.097C109.884 19.4477 109.942 19.7697 110.013 20.0659H112.791C112.687 19.6547 112.612 19.2638 112.558 18.8958V18.8929ZM108.909 17.5704C108.38 17.97 107.719 18.1655 106.926 18.1655C106.382 18.1655 105.957 18.0505 105.649 17.8234C105.342 17.5963 105.186 17.2686 105.186 16.8431C105.186 16.3716 105.353 16.0065 105.684 15.742C106.014 15.4746 106.509 15.2935 107.17 15.19L109.706 14.8019V16.1157C109.706 16.685 109.444 17.1708 108.912 17.5676L108.909 17.5704Z" fill="white"/>
<path d="M115.082 20.0601V4.19351H117.859V20.0601H115.082Z" fill="white"/>
<path d="M67.275 34.0264C66.8869 33.3795 66.3637 32.8793 65.6996 32.517C65.4552 32.3848 65.2022 32.2727 64.9349 32.1893C65.1045 32.1289 65.2741 32.0599 65.4351 31.9766C66.0388 31.669 66.5189 31.232 66.8783 30.6656C67.2405 30.0993 67.4188 29.4352 67.4188 28.6704C67.4188 27.4515 66.9904 26.4855 66.1308 25.7725C65.2684 25.0624 64.127 24.7059 62.7039 24.7059H53.0788V40.5725H62.9886C63.9718 40.5725 64.8314 40.3943 65.5558 40.0435C66.2803 39.6899 66.8467 39.1897 67.2492 38.5428C67.6545 37.896 67.8558 37.1399 67.8558 36.2745C67.8558 35.4092 67.6631 34.6704 67.2693 34.0264H67.275ZM62.175 26.8219C62.9512 26.8219 63.5434 27.003 63.9488 27.3738C64.3513 27.739 64.5525 28.2737 64.5525 28.9809C64.5525 29.6881 64.3398 30.2488 63.9143 30.634C63.4888 31.0192 62.8764 31.209 62.083 31.209H55.9422V26.8247H62.1721L62.175 26.8219ZM64.288 37.7839C63.8482 38.2324 63.2243 38.4566 62.4136 38.4566H55.9422V33.322H62.2842C63.1208 33.322 63.7734 33.5549 64.2449 34.0235C64.7164 34.495 64.9492 35.1332 64.9492 35.9411C64.9492 36.7489 64.7279 37.3325 64.288 37.781V37.7839Z" fill="white"/>
<path d="M80.5284 29.1132V40.3512H77.8145V38.2496C77.4638 38.8907 76.9837 39.4197 76.3713 39.8308C75.6468 40.3253 74.7901 40.5725 73.8069 40.5725C73.0278 40.5725 72.3551 40.4058 71.7887 40.0752C71.2224 39.7446 70.7883 39.2932 70.4893 38.7211C70.1845 38.1461 70.0379 37.5021 70.0379 36.7805V29.1132H72.8151V36.2056C72.8151 36.8984 72.9847 37.4188 73.3325 37.7724C73.6775 38.126 74.1634 38.3014 74.7987 38.3014C75.368 38.3014 75.874 38.172 76.3081 37.9075C76.7422 37.6401 77.0872 37.2721 77.3402 36.7949C77.5989 36.3148 77.7283 35.7772 77.7283 35.1763V29.116H80.5284V29.1132Z" fill="white"/>
<path d="M87.4454 40.5725C85.8872 40.5725 84.6452 40.2448 83.7195 39.5922C82.7938 38.9396 82.2878 38.0311 82.1987 36.8697H84.7343C84.8091 37.4418 85.0793 37.8759 85.5508 38.1691C86.0223 38.4624 86.6519 38.609 87.4454 38.609C88.1641 38.609 88.7046 38.4969 89.0639 38.2669C89.4233 38.0397 89.6044 37.712 89.6044 37.2865C89.6044 36.9789 89.5009 36.7259 89.2968 36.5275C89.0898 36.3292 88.7017 36.1653 88.1296 36.0331L86.3213 35.6133C85.0879 35.3488 84.1737 34.9349 83.5786 34.3685C82.9835 33.8021 82.6874 33.0949 82.6874 32.2411C82.6874 31.1975 83.087 30.3781 83.8891 29.783C84.6883 29.1879 85.7952 28.8918 87.2067 28.8918C88.6183 28.8918 89.7223 29.1908 90.5675 29.783C91.4127 30.3781 91.8785 31.1975 91.9676 32.2411H89.4319C89.3572 31.7868 89.1272 31.4418 88.7391 31.2061C88.351 30.9704 87.8162 30.8525 87.1406 30.8525C86.5081 30.8525 86.0309 30.9531 85.7089 31.1515C85.3841 31.3498 85.2231 31.6402 85.2231 32.0226C85.2231 32.3158 85.3467 32.5631 85.5968 32.7614C85.8469 32.9598 86.2638 33.1323 86.8531 33.2789L88.7937 33.7188C89.8948 33.9689 90.7285 34.403 91.2949 35.0182C91.8612 35.6363 92.143 36.3637 92.143 37.2003C92.143 38.2726 91.7318 39.1035 90.9096 39.6899C90.0874 40.2793 88.9346 40.5725 87.4511 40.5725H87.4454Z" fill="white"/>
<path d="M96.6479 25.8731C96.6479 25.1063 96.0262 24.4846 95.2593 24.4846C94.4925 24.4846 93.8708 25.1063 93.8708 25.8731V25.9134C93.8708 26.6803 94.4925 27.302 95.2593 27.302C96.0262 27.302 96.6479 26.6803 96.6479 25.9134V25.8731Z" fill="white"/>
<path d="M96.6479 29.3345H93.8708V40.5725H96.6479V29.3345Z" fill="white"/>
<path d="M110.077 32.9023V40.5725H107.279V33.4744C107.279 32.7815 107.101 32.2612 106.747 31.9076C106.394 31.554 105.882 31.3786 105.204 31.3786C104.617 31.3786 104.091 31.5108 103.631 31.7782C103.168 32.0398 102.806 32.4078 102.547 32.8793C102.291 33.3479 102.165 33.8913 102.165 34.5094V40.5697H99.3877V29.3317H102.102V31.4016C102.464 30.772 102.95 30.2545 103.553 29.8463C104.289 29.3575 105.172 29.1103 106.198 29.1103C107.417 29.1103 108.372 29.4553 109.056 30.1424C109.737 30.8352 110.079 31.7523 110.079 32.8965L110.077 32.9023Z" fill="white"/>
<path d="M122.488 31.5367C122.03 30.6972 121.389 30.0475 120.567 29.5847C119.742 29.1247 118.773 28.8918 117.658 28.8918C116.482 28.8918 115.453 29.139 114.573 29.6307C113.69 30.1251 113.009 30.8036 112.515 31.6776C112.02 32.5544 111.779 33.5635 111.779 34.7077C111.779 35.8519 112.023 36.8668 112.515 37.7465C113.009 38.6291 113.696 39.3191 114.584 39.8222C115.473 40.3195 116.514 40.5725 117.704 40.5725C119.026 40.5725 120.124 40.2649 120.998 39.6439C121.872 39.0287 122.496 38.1892 122.861 37.1313H120.239C120.035 37.5884 119.71 37.9248 119.271 38.1461C118.831 38.3675 118.313 38.4767 117.73 38.4767C116.715 38.4767 115.933 38.1576 115.381 37.5165C114.964 37.0307 114.705 36.3809 114.605 35.5673H123.083C123.114 35.392 123.137 35.2137 123.152 35.0383C123.163 34.863 123.172 34.6704 123.172 34.4634C123.172 33.3479 122.945 32.3704 122.49 31.5338L122.488 31.5367ZM114.648 33.6325C114.766 32.9454 115.007 32.3848 115.378 31.9565C115.93 31.3096 116.675 30.9876 117.615 30.9876C118.48 30.9876 119.158 31.2492 119.641 31.7811C120.044 32.2181 120.28 32.8333 120.346 33.6325H114.651H114.648Z" fill="white"/>
<path d="M129.382 40.5725C127.823 40.5725 126.581 40.2448 125.656 39.5922C124.73 38.9396 124.224 38.0311 124.135 36.8697H126.671C126.745 37.4418 127.016 37.8759 127.487 38.1691C127.959 38.4624 128.588 38.609 129.382 38.609C130.1 38.609 130.641 38.4969 131 38.2669C131.36 38.0397 131.541 37.712 131.541 37.2865C131.541 36.9789 131.437 36.7259 131.233 36.5275C131.026 36.3292 130.638 36.1653 130.066 36.0331L128.257 35.6133C127.024 35.3488 126.11 34.9349 125.515 34.3685C124.92 33.8021 124.624 33.0949 124.624 32.2411C124.624 31.1975 125.023 30.3781 125.825 29.783C126.625 29.1879 127.731 28.8918 129.143 28.8918C130.555 28.8918 131.659 29.1908 132.504 29.783C133.349 30.3781 133.815 31.1975 133.904 32.2411H131.368C131.293 31.7868 131.063 31.4418 130.675 31.2061C130.287 30.9704 129.752 30.8525 129.077 30.8525C128.444 30.8525 127.967 30.9531 127.645 31.1515C127.32 31.3498 127.159 31.6402 127.159 32.0226C127.159 32.3158 127.283 32.5631 127.533 32.7614C127.783 32.9598 128.2 33.1323 128.789 33.2789L130.73 33.7188C131.831 33.9689 132.665 34.403 133.231 35.0182C133.797 35.6363 134.079 36.3637 134.079 37.2003C134.079 38.2726 133.668 39.1035 132.846 39.6899C132.024 40.2793 130.871 40.5725 129.387 40.5725H129.382Z" fill="white"/>
<path d="M140.246 40.5725C138.688 40.5725 137.446 40.2448 136.52 39.5922C135.594 38.9396 135.088 38.0311 134.999 36.8697H137.535C137.61 37.4418 137.88 37.8759 138.351 38.1691C138.823 38.4624 139.452 38.609 140.246 38.609C140.965 38.609 141.505 38.4969 141.864 38.2669C142.224 38.0397 142.405 37.712 142.405 37.2865C142.405 36.9789 142.301 36.7259 142.097 36.5275C141.89 36.3292 141.502 36.1653 140.93 36.0331L139.122 35.6133C137.888 35.3488 136.974 34.9349 136.379 34.3685C135.784 33.8021 135.488 33.0949 135.488 32.2411C135.488 31.1975 135.887 30.3781 136.69 29.783C137.489 29.1879 138.596 28.8918 140.007 28.8918C141.419 28.8918 142.523 29.1908 143.368 29.783C144.213 30.3781 144.679 31.1975 144.768 32.2411H142.232C142.158 31.7868 141.928 31.4418 141.54 31.2061C141.151 30.9704 140.617 30.8525 139.941 30.8525C139.309 30.8525 138.831 30.9531 138.509 31.1515C138.185 31.3498 138.024 31.6402 138.024 32.0226C138.024 32.3158 138.147 32.5631 138.397 32.7614C138.647 32.9598 139.064 33.1323 139.654 33.2789L141.594 33.7188C142.695 33.9689 143.529 34.403 144.095 35.0182C144.662 35.6363 144.943 36.3637 144.943 37.2003C144.943 38.2726 144.532 39.1035 143.71 39.6899C142.888 40.2793 141.735 40.5725 140.252 40.5725H140.246Z" fill="white"/>
<path d="M67.8587 51.0055V57.1952C67.0221 58.0491 66.0533 58.6959 64.9522 59.1358C63.8511 59.5756 62.5545 59.797 61.0739 59.797C59.3979 59.797 57.9518 59.4635 56.73 58.7937C55.511 58.1238 54.5709 57.1837 53.9097 55.9705C53.2485 54.7573 52.9178 53.3371 52.9178 51.707C52.9178 50.077 53.2485 48.6481 53.9097 47.4205C54.5709 46.193 55.4909 45.2327 56.6638 44.5341C57.8368 43.8384 59.2053 43.4906 60.7635 43.4906C62.0255 43.4906 63.1611 43.7234 64.1673 44.1834C65.1736 44.6463 65.9872 45.2816 66.6139 46.078C67.2377 46.8801 67.6172 47.8115 67.7466 48.8666H64.8803C64.7366 47.9294 64.2938 47.1848 63.5579 46.6414C62.8248 46.0981 61.9048 45.8279 60.8037 45.8279C59.8032 45.8279 58.9293 46.0607 58.1818 46.5322C57.4343 47.0037 56.8507 47.6707 56.4425 48.5389C56.0314 49.4042 55.8272 50.4421 55.8272 51.6467C55.8272 52.8512 56.0371 53.9351 56.454 54.809C56.8708 55.683 57.4832 56.3471 58.2824 56.8042C59.0845 57.2613 60.0649 57.4885 61.2263 57.4885C62.1204 57.4885 62.8909 57.3735 63.5406 57.1463C64.13 56.9365 64.6158 56.6375 64.9924 56.2379V53.2566H61.2033V51.0113H67.8558L67.8587 51.0055Z" fill="white"/>
<path d="M76.8054 48.4268V51.0487C76.7306 51.0171 76.6271 51.0027 76.4977 50.9941C76.3655 50.9854 76.2016 50.9826 76.0119 50.9826C74.9395 50.9826 74.1374 51.2183 73.6113 51.684C73.0824 52.1555 72.8179 52.903 72.8179 53.9322V59.7941H70.0407V48.5561H72.7546V50.6232C73.022 49.9763 73.3957 49.4646 73.8758 49.0851C74.5112 48.5878 75.2673 48.3376 76.147 48.3376C76.4546 48.3376 76.676 48.3693 76.8082 48.4239L76.8054 48.4268Z" fill="white"/>
<path d="M83.5729 59.797C82.3827 59.797 81.3362 59.5469 80.4335 59.0467C79.5308 58.5464 78.8293 57.8536 78.3291 56.9652C77.8288 56.0769 77.5787 55.0592 77.5787 53.9121C77.5787 52.765 77.8288 51.7588 78.3291 50.8934C78.8293 50.0281 79.5308 49.3467 80.4335 48.8551C81.3362 48.3635 82.3827 48.1163 83.5729 48.1163C84.7631 48.1163 85.8268 48.3635 86.7238 48.8551C87.6207 49.3467 88.3165 50.0281 88.8167 50.8934C89.3169 51.7617 89.5671 52.7679 89.5671 53.9121C89.5671 55.0563 89.3141 56.0769 88.8081 56.9652C88.3021 57.8536 87.6006 58.5493 86.7036 59.0467C85.8067 59.5469 84.7631 59.797 83.5729 59.797ZM83.5729 57.5718C84.1594 57.5718 84.6883 57.4223 85.1598 57.1205C85.6313 56.8186 85.9964 56.3931 86.2609 55.8411C86.5254 55.2892 86.6576 54.6394 86.6576 53.892C86.6576 52.7909 86.3673 51.9226 85.7865 51.2902C85.2058 50.6577 84.467 50.3415 83.5729 50.3415C82.6788 50.3415 81.9342 50.6577 81.3477 51.2902C80.7612 51.9226 80.4651 52.788 80.4651 53.892C80.4651 54.6423 80.6002 55.292 80.8733 55.8411C81.1436 56.3931 81.5116 56.8186 81.9744 57.1205C82.4373 57.4223 82.9691 57.5718 83.5729 57.5718Z" fill="white"/>
<path d="M93.4252 59.797L89.9868 48.559H92.8962L94.923 56.9997H94.7247L97.2143 48.559H99.75L102.286 56.9997H102.064L104.071 48.559H106.914L103.476 59.797H100.877L98.3413 51.4454H98.5627L96.027 59.797H93.4252Z" fill="white"/>
<path d="M118.063 50.7641C117.609 49.9246 116.971 49.2749 116.146 48.812C115.323 48.352 114.352 48.1192 113.239 48.1192C112.06 48.1192 111.034 48.3664 110.154 48.858C109.272 49.3525 108.585 50.031 108.09 50.9049C107.601 51.7818 107.354 52.7909 107.354 53.9351C107.354 55.0793 107.601 56.0941 108.09 56.9739C108.585 57.8565 109.274 58.5464 110.166 59.0495C111.051 59.5469 112.092 59.7999 113.282 59.7999C114.605 59.7999 115.703 59.4923 116.577 58.8713C117.451 58.2561 118.075 57.4166 118.44 56.3586H115.818C115.611 56.8157 115.289 57.1521 114.849 57.3735C114.409 57.5948 113.894 57.7041 113.305 57.7041C112.29 57.7041 111.508 57.385 110.956 56.7439C110.539 56.258 110.281 55.6083 110.18 54.7947H118.658C118.69 54.6193 118.713 54.4411 118.727 54.2657C118.742 54.0903 118.75 53.8977 118.75 53.6907C118.75 52.5753 118.523 51.5978 118.066 50.7612L118.063 50.7641ZM110.226 52.857C110.344 52.1699 110.588 51.6093 110.956 51.1809C111.508 50.5341 112.256 50.2121 113.193 50.2121C114.058 50.2121 114.737 50.4737 115.223 51.0056C115.622 51.4425 115.858 52.0578 115.921 52.857H110.226Z" fill="white"/>
<path d="M127.361 48.4268V51.0487C127.289 51.0171 127.185 51.0027 127.053 50.9941C126.921 50.9854 126.76 50.9826 126.57 50.9826C125.495 50.9826 124.695 51.2183 124.164 51.684C123.635 52.1555 123.373 52.903 123.373 53.9322V59.7941H120.596V48.5561H123.304V50.6232C123.574 49.9763 123.951 49.4646 124.428 49.0851C125.058 48.5878 125.814 48.3376 126.696 48.3376C127.007 48.3376 127.228 48.3693 127.358 48.4239L127.361 48.4268Z" fill="white"/>
<path d="M133.07 59.797C131.512 59.797 130.27 59.4693 129.344 58.8167C128.418 58.1641 127.912 57.2556 127.823 56.0941H130.359C130.434 56.6662 130.704 57.1003 131.175 57.3936C131.647 57.6868 132.277 57.8334 133.07 57.8334C133.789 57.8334 134.329 57.7213 134.689 57.4913C135.048 57.2642 135.229 56.9365 135.229 56.511C135.229 56.2034 135.126 55.9504 134.921 55.752C134.714 55.5537 134.326 55.3898 133.754 55.2575L131.946 54.8378C130.713 54.5733 129.798 54.1593 129.203 53.593C128.608 53.0266 128.312 52.3194 128.312 51.4655C128.312 50.4219 128.712 49.6026 129.514 49.0075C130.313 48.4124 131.42 48.1163 132.831 48.1163C134.243 48.1163 135.347 48.4153 136.192 49.0075C137.037 49.6026 137.503 50.4219 137.592 51.4655H135.057C134.982 51.0113 134.752 50.6663 134.364 50.4306C133.976 50.1948 133.441 50.077 132.765 50.077C132.133 50.077 131.656 50.1776 131.334 50.3759C131.009 50.5743 130.848 50.8647 130.848 51.247C130.848 51.5403 130.971 51.7875 131.221 51.9859C131.472 52.1843 131.888 52.3568 132.478 52.5034L134.418 52.9432C135.519 53.1934 136.353 53.6275 136.92 54.2427C137.486 54.8608 137.768 55.5881 137.768 56.4247C137.768 57.4971 137.357 58.3279 136.534 58.9144C135.712 59.5038 134.559 59.797 133.076 59.797H133.07Z" fill="white"/>
</svg>
