<svg width="408" height="17" viewBox="0 0 408 17" fill="none" xmlns="http://www.w3.org/2000/svg">
<path d="M2.41 16V13.69H6.458C7.514 13.69 8.438 13.4627 9.23 13.008C10.0367 12.5533 10.66 11.9227 11.1 11.116C11.5547 10.2947 11.782 9.34867 11.782 8.278C11.782 7.222 11.5547 6.29067 11.1 5.484C10.6453 4.67733 10.0147 4.04667 9.208 3.592C8.416 3.13733 7.49933 2.91 6.458 2.91H2.41V0.599999H6.524C7.63867 0.599999 8.67267 0.797999 9.626 1.194C10.5793 1.57533 11.408 2.118 12.112 2.822C12.8307 3.51133 13.388 4.32533 13.784 5.264C14.18 6.188 14.378 7.2 14.378 8.3C14.378 9.38533 14.18 10.3973 13.784 11.336C13.388 12.2747 12.838 13.096 12.134 13.8C11.43 14.4893 10.6013 15.032 9.648 15.428C8.69467 15.8093 7.668 16 6.568 16H2.41ZM0.672 16V0.599999H3.202V16H0.672ZM21.3572 16V0.599999H23.8872V16H21.3572ZM38.5744 16.22C37.5184 16.22 36.5211 16.0147 35.5824 15.604C34.6437 15.1933 33.8224 14.6287 33.1184 13.91C32.4144 13.1767 31.8571 12.3333 31.4464 11.38C31.0504 10.412 30.8524 9.378 30.8524 8.278C30.8524 7.178 31.0504 6.15133 31.4464 5.198C31.8571 4.24467 32.4144 3.40867 33.1184 2.69C33.8371 1.95667 34.6731 1.392 35.6264 0.995999C36.5944 0.585332 37.6357 0.379999 38.7504 0.379999C39.9677 0.379999 41.0971 0.614666 42.1384 1.084C43.1797 1.55333 44.0524 2.22067 44.7564 3.086L43.0404 4.802C42.5857 4.15667 41.9771 3.66533 41.2144 3.328C40.4517 2.976 39.6304 2.8 38.7504 2.8C37.6944 2.8 36.7631 3.03467 35.9564 3.504C35.1644 3.95867 34.5484 4.59667 34.1084 5.418C33.6684 6.23933 33.4484 7.19267 33.4484 8.278C33.4484 9.36333 33.6684 10.324 34.1084 11.16C34.5631 11.9813 35.1717 12.6267 35.9344 13.096C36.6971 13.5653 37.5624 13.8 38.5304 13.8C39.5571 13.8 40.4371 13.6167 41.1704 13.25C41.9184 12.8687 42.4904 12.3113 42.8864 11.578C43.2824 10.83 43.4804 9.91333 43.4804 8.828L45.0644 9.972H38.4864V7.662H46.0984V8.014C46.0984 9.84733 45.7684 11.3727 45.1084 12.59C44.4631 13.8073 43.5757 14.7167 42.4464 15.318C41.3171 15.9193 40.0264 16.22 38.5744 16.22ZM53.0165 16V0.599999H55.5465V16H53.0165ZM67.1538 16V1.04H69.6838V16H67.1538ZM62.1378 2.91V0.599999H74.6998V2.91H62.1378ZM78.0319 16L84.3679 0.599999H86.1279L92.4199 16H89.6919L84.7639 3.526H85.6879L80.7159 16H78.0319ZM81.1559 13.03V10.83H89.3179V13.03H81.1559ZM98.8513 16V0.599999H101.381V16H98.8513ZM100.589 16V13.69H108.641V16H100.589ZM123.979 16V0.599999H125.739L132.141 11.138H130.997L137.399 0.599999H139.159V16H136.629V5.044L137.201 5.198L132.449 13.008H130.689L125.937 5.198L126.509 5.044V16H123.979ZM145.755 16L152.091 0.599999H153.851L160.143 16H157.415L152.487 3.526H153.411L148.439 16H145.755ZM148.879 13.03V10.83H157.041V13.03H148.879ZM168.312 9.466V7.376H172.206C172.984 7.376 173.585 7.178 174.01 6.782C174.45 6.37133 174.67 5.80667 174.67 5.088C174.67 4.44267 174.458 3.9 174.032 3.46C173.607 3.02 173.006 2.8 172.228 2.8H168.312V0.599999H172.338C173.306 0.599999 174.157 0.797999 174.89 1.194C175.624 1.57533 176.188 2.10333 176.584 2.778C176.995 3.438 177.2 4.19333 177.2 5.044C177.2 5.93867 176.995 6.716 176.584 7.376C176.188 8.036 175.624 8.54933 174.89 8.916C174.157 9.28267 173.306 9.466 172.338 9.466H168.312ZM166.574 16V0.599999H169.104V16H166.574ZM175.022 16L169.632 9.312L171.986 8.454L178.212 16H175.022ZM193.794 16L186.666 7.97L193.64 0.599999H196.874L189.174 8.608L189.196 7.222L197.094 16H193.794ZM184.488 16V0.599999H187.018V16H184.488ZM203.283 16V0.599999H205.813V16H203.283ZM205.021 16V13.69H213.645V16H205.021ZM205.021 9.246V7.024H212.897V9.246H205.021ZM205.021 2.91V0.599999H213.535V2.91H205.021ZM223.994 16V1.04H226.524V16H223.994ZM218.978 2.91V0.599999H231.54V2.91H218.978ZM238.143 16V0.599999H240.673V16H238.143ZM248.408 16V0.599999H250.168L250.938 3.504V16H248.408ZM259.078 16L249.86 3.966L250.168 0.599999L259.386 12.634L259.078 16ZM259.078 16L258.308 13.294V0.599999H260.838V16H259.078ZM275.53 16.22C274.474 16.22 273.477 16.0147 272.538 15.604C271.599 15.1933 270.778 14.6287 270.074 13.91C269.37 13.1767 268.813 12.3333 268.402 11.38C268.006 10.412 267.808 9.378 267.808 8.278C267.808 7.178 268.006 6.15133 268.402 5.198C268.813 4.24467 269.37 3.40867 270.074 2.69C270.793 1.95667 271.629 1.392 272.582 0.995999C273.55 0.585332 274.591 0.379999 275.706 0.379999C276.923 0.379999 278.053 0.614666 279.094 1.084C280.135 1.55333 281.008 2.22067 281.712 3.086L279.996 4.802C279.541 4.15667 278.933 3.66533 278.17 3.328C277.407 2.976 276.586 2.8 275.706 2.8C274.65 2.8 273.719 3.03467 272.912 3.504C272.12 3.95867 271.504 4.59667 271.064 5.418C270.624 6.23933 270.404 7.19267 270.404 8.278C270.404 9.36333 270.624 10.324 271.064 11.16C271.519 11.9813 272.127 12.6267 272.89 13.096C273.653 13.5653 274.518 13.8 275.486 13.8C276.513 13.8 277.393 13.6167 278.126 13.25C278.874 12.8687 279.446 12.3113 279.842 11.578C280.238 10.83 280.436 9.91333 280.436 8.828L282.02 9.972H275.442V7.662H283.054V8.014C283.054 9.84733 282.724 11.3727 282.064 12.59C281.419 13.8073 280.531 14.7167 279.402 15.318C278.273 15.9193 276.982 16.22 275.53 16.22ZM297.009 16L303.345 0.599999H305.105L311.397 16H308.669L303.741 3.526H304.665L299.693 16H297.009ZM300.133 13.03V10.83H308.295V13.03H300.133ZM323.857 16.22C322.801 16.22 321.803 16.0147 320.865 15.604C319.926 15.1933 319.105 14.6287 318.401 13.91C317.697 13.1767 317.139 12.3333 316.729 11.38C316.333 10.412 316.135 9.378 316.135 8.278C316.135 7.178 316.333 6.15133 316.729 5.198C317.139 4.24467 317.697 3.40867 318.401 2.69C319.119 1.95667 319.955 1.392 320.909 0.995999C321.877 0.585332 322.918 0.379999 324.033 0.379999C325.25 0.379999 326.379 0.614666 327.421 1.084C328.462 1.55333 329.335 2.22067 330.039 3.086L328.323 4.802C327.868 4.15667 327.259 3.66533 326.497 3.328C325.734 2.976 324.913 2.8 324.033 2.8C322.977 2.8 322.045 3.03467 321.239 3.504C320.447 3.95867 319.831 4.59667 319.391 5.418C318.951 6.23933 318.731 7.19267 318.731 8.278C318.731 9.36333 318.951 10.324 319.391 11.16C319.845 11.9813 320.454 12.6267 321.217 13.096C321.979 13.5653 322.845 13.8 323.813 13.8C324.839 13.8 325.719 13.6167 326.453 13.25C327.201 12.8687 327.773 12.3113 328.169 11.578C328.565 10.83 328.763 9.91333 328.763 8.828L330.347 9.972H323.769V7.662H331.381V8.014C331.381 9.84733 331.051 11.3727 330.391 12.59C329.745 13.8073 328.858 14.7167 327.729 15.318C326.599 15.9193 325.309 16.22 323.857 16.22ZM338.299 16V0.599999H340.829V16H338.299ZM340.037 16V13.69H348.661V16H340.037ZM340.037 9.246V7.024H347.913V9.246H340.037ZM340.037 2.91V0.599999H348.551V2.91H340.037ZM355.676 16V0.599999H357.436L358.206 3.504V16H355.676ZM366.346 16L357.128 3.966L357.436 0.599999L366.654 12.634L366.346 16ZM366.346 16L365.576 13.294V0.599999H368.106V16H366.346ZM382.841 16.22C381.726 16.22 380.692 16.022 379.739 15.626C378.8 15.2153 377.979 14.6507 377.275 13.932C376.571 13.1987 376.028 12.3553 375.647 11.402C375.266 10.434 375.075 9.4 375.075 8.3C375.075 7.2 375.266 6.17333 375.647 5.22C376.028 4.252 376.571 3.40867 377.275 2.69C377.979 1.97133 378.8 1.40667 379.739 0.995999C380.692 0.585332 381.726 0.379999 382.841 0.379999C384.088 0.379999 385.166 0.585332 386.075 0.995999C386.984 1.40667 387.791 1.964 388.495 2.668L386.779 4.384C386.324 3.88533 385.767 3.49667 385.107 3.218C384.462 2.93933 383.706 2.8 382.841 2.8C382.078 2.8 381.382 2.932 380.751 3.196C380.12 3.46 379.57 3.84133 379.101 4.34C378.646 4.824 378.294 5.40333 378.045 6.078C377.796 6.75267 377.671 7.49333 377.671 8.3C377.671 9.10667 377.796 9.84733 378.045 10.522C378.294 11.1967 378.646 11.7833 379.101 12.282C379.57 12.766 380.12 13.14 380.751 13.404C381.382 13.668 382.078 13.8 382.841 13.8C383.78 13.8 384.572 13.6607 385.217 13.382C385.877 13.0887 386.434 12.6927 386.889 12.194L388.605 13.91C387.901 14.6287 387.072 15.1933 386.119 15.604C385.166 16.0147 384.073 16.22 382.841 16.22ZM399.458 9.84L393.452 0.599999H396.378L401.064 7.97H399.7L404.386 0.599999H407.268L401.218 9.84H399.458ZM399.106 16V8.256H401.636V16H399.106Z" fill="url(#paint0_linear_1_20)"/>
<defs>
<linearGradient id="paint0_linear_1_20" x1="408" y1="8" x2="-49.6058" y2="8" gradientUnits="userSpaceOnUse">
<stop stop-color="#3580F6"/>
<stop offset="1" stop-color="#FFDD45"/>
</linearGradient>
</defs>
</svg>
